<mxfile host="app.diagrams.net" modified="2024-04-20T18:01:29.631Z" agent="Mozilla/5.0 (Windows NT 10.0; Win64; x64) AppleWebKit/537.36 (KHTML, like Gecko) Chrome/124.0.0.0 Safari/537.36" etag="jeoR7TKLKZCKjf4pI5Fg" version="24.2.7" type="github" pages="2">
  <diagram name="Architecture" id="OhPh5uLx-wJ6edmDWOby">
    <mxGraphModel dx="2471" dy="2058" grid="1" gridSize="10" guides="1" tooltips="1" connect="1" arrows="1" fold="1" page="1" pageScale="1" pageWidth="827" pageHeight="1169" math="0" shadow="0">
      <root>
        <mxCell id="0" />
        <mxCell id="1" parent="0" />
        <mxCell id="uL4cEKJKNSIRRnAHL3zK-23" style="edgeStyle=orthogonalEdgeStyle;rounded=0;orthogonalLoop=1;jettySize=auto;html=1;exitX=0;exitY=0.5;exitDx=0;exitDy=0;entryX=1.094;entryY=0.05;entryDx=0;entryDy=0;entryPerimeter=0;startArrow=block;startFill=1;" parent="1" source="D9d4MIyUl19dgPOAiSuq-2" target="uL4cEKJKNSIRRnAHL3zK-28" edge="1">
          <mxGeometry relative="1" as="geometry">
            <mxPoint y="224.23529411764707" as="targetPoint" />
            <Array as="points">
              <mxPoint x="-60" y="225" />
              <mxPoint x="-60" y="139" />
            </Array>
          </mxGeometry>
        </mxCell>
        <mxCell id="NqVfrc1vrR4CO1CbtlQ2-12" value="&lt;span style=&quot;font-size: 12px; background-color: rgb(251, 251, 251);&quot;&gt;/api/auth -&amp;gt; http://localhost:8080/api&lt;/span&gt;" style="edgeLabel;html=1;align=center;verticalAlign=middle;resizable=0;points=[];" vertex="1" connectable="0" parent="uL4cEKJKNSIRRnAHL3zK-23">
          <mxGeometry x="-0.4031" y="-1" relative="1" as="geometry">
            <mxPoint as="offset" />
          </mxGeometry>
        </mxCell>
        <mxCell id="On-y9z41SKKhghHkTIPx-30" style="edgeStyle=orthogonalEdgeStyle;rounded=0;orthogonalLoop=1;jettySize=auto;html=1;exitX=1;exitY=0.5;exitDx=0;exitDy=0;entryX=0;entryY=0.5;entryDx=0;entryDy=0;" parent="1" source="uL4cEKJKNSIRRnAHL3zK-1" target="On-y9z41SKKhghHkTIPx-29" edge="1">
          <mxGeometry relative="1" as="geometry" />
        </mxCell>
        <mxCell id="uL4cEKJKNSIRRnAHL3zK-32" style="edgeStyle=orthogonalEdgeStyle;rounded=0;orthogonalLoop=1;jettySize=auto;html=1;exitX=0.5;exitY=1;exitDx=0;exitDy=0;exitPerimeter=0;entryX=0.5;entryY=0;entryDx=0;entryDy=0;" parent="1" source="uL4cEKJKNSIRRnAHL3zK-19" target="uL4cEKJKNSIRRnAHL3zK-2" edge="1">
          <mxGeometry relative="1" as="geometry" />
        </mxCell>
        <mxCell id="uL4cEKJKNSIRRnAHL3zK-19" value="" style="shape=cylinder3;whiteSpace=wrap;html=1;boundedLbl=1;backgroundOutline=1;size=15;rotation=-90;" parent="1" vertex="1">
          <mxGeometry x="645" y="179.11" width="50" height="220" as="geometry" />
        </mxCell>
        <mxCell id="uL4cEKJKNSIRRnAHL3zK-20" value="notifier_queue" style="text;html=1;align=center;verticalAlign=middle;resizable=0;points=[];autosize=1;strokeColor=none;fillColor=none;" parent="1" vertex="1">
          <mxGeometry x="620" y="274.11" width="100" height="30" as="geometry" />
        </mxCell>
        <mxCell id="H6W7bo5BwLUahlrWlTaL-4" style="edgeStyle=orthogonalEdgeStyle;rounded=0;orthogonalLoop=1;jettySize=auto;html=1;exitX=0;exitY=0.5;exitDx=0;exitDy=0;startArrow=classicThin;startFill=1;" parent="1" source="uL4cEKJKNSIRRnAHL3zK-28" edge="1">
          <mxGeometry relative="1" as="geometry">
            <mxPoint x="-410" y="490" as="targetPoint" />
            <Array as="points">
              <mxPoint x="-410" y="490" />
            </Array>
          </mxGeometry>
        </mxCell>
        <mxCell id="NqVfrc1vrR4CO1CbtlQ2-9" value="/api" style="edgeLabel;html=1;align=center;verticalAlign=middle;resizable=0;points=[];" vertex="1" connectable="0" parent="H6W7bo5BwLUahlrWlTaL-4">
          <mxGeometry x="0.2316" y="-1" relative="1" as="geometry">
            <mxPoint as="offset" />
          </mxGeometry>
        </mxCell>
        <mxCell id="uL4cEKJKNSIRRnAHL3zK-28" value="NGINX" style="rounded=0;whiteSpace=wrap;html=1;" parent="1" vertex="1">
          <mxGeometry x="-179" y="100" width="50" height="780" as="geometry" />
        </mxCell>
        <mxCell id="uL4cEKJKNSIRRnAHL3zK-34" value="MongoDB" style="shape=cylinder3;whiteSpace=wrap;html=1;boundedLbl=1;backgroundOutline=1;size=15;" parent="1" vertex="1">
          <mxGeometry x="710" y="369.47" width="90" height="120" as="geometry" />
        </mxCell>
        <mxCell id="uL4cEKJKNSIRRnAHL3zK-36" value="Redis" style="shape=cylinder3;whiteSpace=wrap;html=1;boundedLbl=1;backgroundOutline=1;size=15;" parent="1" vertex="1">
          <mxGeometry x="710" y="520" width="90" height="120" as="geometry" />
        </mxCell>
        <mxCell id="kKt7lPnzuaeilpAcrNZs-20" style="edgeStyle=orthogonalEdgeStyle;rounded=0;orthogonalLoop=1;jettySize=auto;html=1;exitX=1;exitY=0.5;exitDx=0;exitDy=0;entryX=0.5;entryY=0;entryDx=0;entryDy=0;entryPerimeter=0;" parent="1" source="D9d4MIyUl19dgPOAiSuq-1" target="uL4cEKJKNSIRRnAHL3zK-36" edge="1">
          <mxGeometry relative="1" as="geometry">
            <Array as="points">
              <mxPoint x="430" y="315" />
              <mxPoint x="450" y="315" />
              <mxPoint x="450" y="500" />
              <mxPoint x="755" y="500" />
            </Array>
          </mxGeometry>
        </mxCell>
        <mxCell id="kKt7lPnzuaeilpAcrNZs-23" style="edgeStyle=orthogonalEdgeStyle;rounded=0;orthogonalLoop=1;jettySize=auto;html=1;exitX=1;exitY=0.5;exitDx=0;exitDy=0;entryX=0.5;entryY=0;entryDx=0;entryDy=0;entryPerimeter=0;" parent="1" source="D9d4MIyUl19dgPOAiSuq-1" target="uL4cEKJKNSIRRnAHL3zK-34" edge="1">
          <mxGeometry relative="1" as="geometry">
            <Array as="points">
              <mxPoint x="430" y="315" />
              <mxPoint x="450" y="315" />
              <mxPoint x="450" y="350" />
              <mxPoint x="755" y="350" />
            </Array>
          </mxGeometry>
        </mxCell>
        <mxCell id="vKR88CdJworYy84HsG_A-4" value="Clickhouse" style="shape=cylinder3;whiteSpace=wrap;html=1;boundedLbl=1;backgroundOutline=1;size=15;" parent="1" vertex="1">
          <mxGeometry x="1219" y="930.11" width="90" height="120" as="geometry" />
        </mxCell>
        <mxCell id="On-y9z41SKKhghHkTIPx-15" style="edgeStyle=orthogonalEdgeStyle;rounded=0;orthogonalLoop=1;jettySize=auto;html=1;exitX=0.5;exitY=1;exitDx=0;exitDy=0;exitPerimeter=0;entryX=0;entryY=0.5;entryDx=0;entryDy=0;" parent="1" source="vKR88CdJworYy84HsG_A-8" target="vKR88CdJworYy84HsG_A-7" edge="1">
          <mxGeometry relative="1" as="geometry" />
        </mxCell>
        <mxCell id="R2HS2P2y9apPICufh9Fz-1" style="edgeStyle=orthogonalEdgeStyle;rounded=0;orthogonalLoop=1;jettySize=auto;html=1;exitX=1;exitY=0.25;exitDx=0;exitDy=0;entryX=0.5;entryY=0;entryDx=0;entryDy=0;entryPerimeter=0;" parent="1" source="D9d4MIyUl19dgPOAiSuq-1" target="uL4cEKJKNSIRRnAHL3zK-19" edge="1">
          <mxGeometry relative="1" as="geometry" />
        </mxCell>
        <mxCell id="R2HS2P2y9apPICufh9Fz-17" style="edgeStyle=orthogonalEdgeStyle;rounded=0;orthogonalLoop=1;jettySize=auto;html=1;exitX=0;exitY=0.5;exitDx=0;exitDy=0;entryX=1;entryY=0.25;entryDx=0;entryDy=0;startArrow=block;startFill=1;" parent="1" source="R2HS2P2y9apPICufh9Fz-7" target="uL4cEKJKNSIRRnAHL3zK-28" edge="1">
          <mxGeometry relative="1" as="geometry">
            <Array as="points">
              <mxPoint x="-70" y="534" />
              <mxPoint x="-70" y="295" />
            </Array>
          </mxGeometry>
        </mxCell>
        <mxCell id="NqVfrc1vrR4CO1CbtlQ2-10" value="&lt;span style=&quot;font-size: 12px; background-color: rgb(251, 251, 251);&quot;&gt;/api/upload-&amp;gt; http://localhost:8080/api&lt;/span&gt;" style="edgeLabel;html=1;align=center;verticalAlign=middle;resizable=0;points=[];" vertex="1" connectable="0" parent="R2HS2P2y9apPICufh9Fz-17">
          <mxGeometry x="-0.5694" y="1" relative="1" as="geometry">
            <mxPoint as="offset" />
          </mxGeometry>
        </mxCell>
        <mxCell id="R2HS2P2y9apPICufh9Fz-12" value="Minio (S3)" style="shape=cylinder3;whiteSpace=wrap;html=1;boundedLbl=1;backgroundOutline=1;size=15;" parent="1" vertex="1">
          <mxGeometry x="460" y="618.37" width="90" height="120" as="geometry" />
        </mxCell>
        <mxCell id="R2HS2P2y9apPICufh9Fz-13" style="edgeStyle=orthogonalEdgeStyle;rounded=0;orthogonalLoop=1;jettySize=auto;html=1;exitX=1;exitY=0.5;exitDx=0;exitDy=0;entryX=0.5;entryY=0;entryDx=0;entryDy=0;entryPerimeter=0;startArrow=block;startFill=1;" parent="1" source="R2HS2P2y9apPICufh9Fz-6" target="R2HS2P2y9apPICufh9Fz-12" edge="1">
          <mxGeometry relative="1" as="geometry" />
        </mxCell>
        <mxCell id="On-y9z41SKKhghHkTIPx-1" value="" style="sketch=0;html=1;aspect=fixed;strokeColor=none;shadow=0;align=center;fillColor=#2D9C5E;verticalAlign=top;labelPosition=center;verticalLabelPosition=bottom;shape=mxgraph.gcp2.check" parent="1" vertex="1">
          <mxGeometry x="1030" y="878" width="30" height="24" as="geometry" />
        </mxCell>
        <mxCell id="On-y9z41SKKhghHkTIPx-4" value="" style="sketch=0;html=1;aspect=fixed;strokeColor=none;shadow=0;align=center;fillColor=#2D9C5E;verticalAlign=top;labelPosition=center;verticalLabelPosition=bottom;shape=mxgraph.gcp2.check" parent="1" vertex="1">
          <mxGeometry x="390" y="417.47" width="30" height="24" as="geometry" />
        </mxCell>
        <mxCell id="On-y9z41SKKhghHkTIPx-5" value="" style="sketch=0;html=1;aspect=fixed;strokeColor=none;shadow=0;align=center;fillColor=#2D9C5E;verticalAlign=top;labelPosition=center;verticalLabelPosition=bottom;shape=mxgraph.gcp2.check" parent="1" vertex="1">
          <mxGeometry x="1030" y="666.37" width="30" height="24" as="geometry" />
        </mxCell>
        <mxCell id="On-y9z41SKKhghHkTIPx-8" value="PostgreSQL" style="shape=cylinder3;whiteSpace=wrap;html=1;boundedLbl=1;backgroundOutline=1;size=15;" parent="1" vertex="1">
          <mxGeometry x="590" y="618.37" width="90" height="120" as="geometry" />
        </mxCell>
        <mxCell id="On-y9z41SKKhghHkTIPx-26" value="" style="rounded=0;whiteSpace=wrap;html=1;" parent="1" vertex="1">
          <mxGeometry x="1180" y="531.25" width="129" height="58.75" as="geometry" />
        </mxCell>
        <mxCell id="On-y9z41SKKhghHkTIPx-27" value="Maildev" style="text;html=1;strokeColor=none;fillColor=none;align=center;verticalAlign=middle;whiteSpace=wrap;rounded=0;" parent="1" vertex="1">
          <mxGeometry x="1180" y="531.75" width="60" height="30" as="geometry" />
        </mxCell>
        <mxCell id="On-y9z41SKKhghHkTIPx-29" value="SMTP" style="rounded=0;whiteSpace=wrap;html=1;" parent="1" vertex="1">
          <mxGeometry x="1180" y="511.25" width="70" height="20" as="geometry" />
        </mxCell>
        <mxCell id="H6W7bo5BwLUahlrWlTaL-9" value="" style="group" parent="1" vertex="1" connectable="0">
          <mxGeometry x="175" y="666.37" width="250" height="244.89" as="geometry" />
        </mxCell>
        <mxCell id="f752bLTZDYG-dpByJCl9-1" value="" style="rounded=0;whiteSpace=wrap;html=1;" parent="H6W7bo5BwLUahlrWlTaL-9" vertex="1">
          <mxGeometry y="54.889999999999986" width="250" height="190" as="geometry" />
        </mxCell>
        <mxCell id="f752bLTZDYG-dpByJCl9-3" value="gSupportChatBot" style="text;html=1;strokeColor=none;fillColor=none;align=center;verticalAlign=middle;whiteSpace=wrap;rounded=0;" parent="H6W7bo5BwLUahlrWlTaL-9" vertex="1">
          <mxGeometry x="25" y="57.889999999999986" width="60" height="30" as="geometry" />
        </mxCell>
        <mxCell id="f752bLTZDYG-dpByJCl9-4" value="Messaging via Telegram Bot" style="rounded=1;whiteSpace=wrap;html=1;" parent="H6W7bo5BwLUahlrWlTaL-9" vertex="1">
          <mxGeometry x="10" y="87.88999999999999" width="230" height="37" as="geometry" />
        </mxCell>
        <mxCell id="On-y9z41SKKhghHkTIPx-7" value="Chats (topics)" style="rounded=1;whiteSpace=wrap;html=1;" parent="H6W7bo5BwLUahlrWlTaL-9" vertex="1">
          <mxGeometry x="10" y="134.89" width="230" height="37" as="geometry" />
        </mxCell>
        <mxCell id="NqVfrc1vrR4CO1CbtlQ2-2" value="" style="shape=image;verticalLabelPosition=bottom;labelBackgroundColor=default;verticalAlign=top;aspect=fixed;imageAspect=0;image=https://cdn.worldvectorlogo.com/logos/golang-1.svg;" vertex="1" parent="H6W7bo5BwLUahlrWlTaL-9">
          <mxGeometry x="75" y="23.629999999999985" width="60" height="30" as="geometry" />
        </mxCell>
        <mxCell id="NqVfrc1vrR4CO1CbtlQ2-4" value="Support Users" style="rounded=1;whiteSpace=wrap;html=1;" vertex="1" parent="H6W7bo5BwLUahlrWlTaL-9">
          <mxGeometry x="10" y="183.63" width="230" height="37" as="geometry" />
        </mxCell>
        <mxCell id="H6W7bo5BwLUahlrWlTaL-13" value="" style="group" parent="1" vertex="1" connectable="0">
          <mxGeometry x="180" y="190" width="250" height="260" as="geometry" />
        </mxCell>
        <mxCell id="H6W7bo5BwLUahlrWlTaL-12" value="" style="group" parent="H6W7bo5BwLUahlrWlTaL-13" vertex="1" connectable="0">
          <mxGeometry y="24.75" width="250" height="235.25" as="geometry" />
        </mxCell>
        <mxCell id="D9d4MIyUl19dgPOAiSuq-1" value="" style="rounded=0;whiteSpace=wrap;html=1;" parent="H6W7bo5BwLUahlrWlTaL-12" vertex="1">
          <mxGeometry y="20" width="250" height="215.25" as="geometry" />
        </mxCell>
        <mxCell id="D9d4MIyUl19dgPOAiSuq-2" value="REST API" style="rounded=0;whiteSpace=wrap;html=1;" parent="H6W7bo5BwLUahlrWlTaL-12" vertex="1">
          <mxGeometry width="70" height="20" as="geometry" />
        </mxCell>
        <mxCell id="D9d4MIyUl19dgPOAiSuq-7" value="gAuth" style="text;html=1;strokeColor=none;fillColor=none;align=center;verticalAlign=middle;whiteSpace=wrap;rounded=0;" parent="H6W7bo5BwLUahlrWlTaL-12" vertex="1">
          <mxGeometry y="20" width="60" height="30" as="geometry" />
        </mxCell>
        <mxCell id="D9d4MIyUl19dgPOAiSuq-8" value="Mobile OTP&amp;nbsp;authorization" style="rounded=1;whiteSpace=wrap;html=1;" parent="H6W7bo5BwLUahlrWlTaL-12" vertex="1">
          <mxGeometry x="12.5" y="195.25" width="230" height="30" as="geometry" />
        </mxCell>
        <mxCell id="D9d4MIyUl19dgPOAiSuq-9" value="JWT" style="rounded=1;whiteSpace=wrap;html=1;" parent="H6W7bo5BwLUahlrWlTaL-12" vertex="1">
          <mxGeometry x="10" y="85" width="230" height="30" as="geometry" />
        </mxCell>
        <mxCell id="uL4cEKJKNSIRRnAHL3zK-47" value="User Profile" style="rounded=1;whiteSpace=wrap;html=1;" parent="H6W7bo5BwLUahlrWlTaL-12" vertex="1">
          <mxGeometry x="10" y="120.25" width="230" height="30" as="geometry" />
        </mxCell>
        <mxCell id="vKR88CdJworYy84HsG_A-3" value="Roles (Admin/Mod/User)" style="rounded=1;whiteSpace=wrap;html=1;" parent="H6W7bo5BwLUahlrWlTaL-12" vertex="1">
          <mxGeometry x="12.5" y="156.36" width="230" height="30" as="geometry" />
        </mxCell>
        <mxCell id="H6W7bo5BwLUahlrWlTaL-1" value="gRPC" style="rounded=0;whiteSpace=wrap;html=1;" parent="H6W7bo5BwLUahlrWlTaL-12" vertex="1">
          <mxGeometry x="70" width="70" height="20" as="geometry" />
        </mxCell>
        <mxCell id="NqVfrc1vrR4CO1CbtlQ2-5" value="Email/phone registration and authorization" style="rounded=1;whiteSpace=wrap;html=1;" vertex="1" parent="H6W7bo5BwLUahlrWlTaL-12">
          <mxGeometry x="12.5" y="50" width="230" height="30" as="geometry" />
        </mxCell>
        <mxCell id="uL4cEKJKNSIRRnAHL3zK-15" value="" style="shape=image;verticalLabelPosition=bottom;labelBackgroundColor=default;verticalAlign=top;aspect=fixed;imageAspect=0;image=https://cdn.worldvectorlogo.com/logos/golang-1.svg;" parent="H6W7bo5BwLUahlrWlTaL-12" vertex="1">
          <mxGeometry x="150" y="-14.75" width="60" height="30" as="geometry" />
        </mxCell>
        <mxCell id="H6W7bo5BwLUahlrWlTaL-14" value="" style="group" parent="1" vertex="1" connectable="0">
          <mxGeometry x="175" y="507.47" width="250" height="132.52999999999997" as="geometry" />
        </mxCell>
        <mxCell id="R2HS2P2y9apPICufh9Fz-10" value="" style="shape=image;verticalLabelPosition=bottom;labelBackgroundColor=default;verticalAlign=top;aspect=fixed;imageAspect=0;image=https://cdn.worldvectorlogo.com/logos/golang-1.svg;" parent="H6W7bo5BwLUahlrWlTaL-14" vertex="1">
          <mxGeometry x="75" width="60" height="30" as="geometry" />
        </mxCell>
        <mxCell id="H6W7bo5BwLUahlrWlTaL-11" value="" style="group" parent="H6W7bo5BwLUahlrWlTaL-14" vertex="1" connectable="0">
          <mxGeometry y="16.899999999999977" width="250" height="115.63" as="geometry" />
        </mxCell>
        <mxCell id="R2HS2P2y9apPICufh9Fz-6" value="" style="rounded=0;whiteSpace=wrap;html=1;" parent="H6W7bo5BwLUahlrWlTaL-11" vertex="1">
          <mxGeometry y="20" width="250" height="95.63" as="geometry" />
        </mxCell>
        <mxCell id="R2HS2P2y9apPICufh9Fz-7" value="REST API" style="rounded=0;whiteSpace=wrap;html=1;" parent="H6W7bo5BwLUahlrWlTaL-11" vertex="1">
          <mxGeometry width="70" height="20" as="geometry" />
        </mxCell>
        <mxCell id="R2HS2P2y9apPICufh9Fz-9" value="gCDN" style="text;html=1;strokeColor=none;fillColor=none;align=center;verticalAlign=middle;whiteSpace=wrap;rounded=0;" parent="H6W7bo5BwLUahlrWlTaL-11" vertex="1">
          <mxGeometry y="20.379999999999995" width="60" height="30" as="geometry" />
        </mxCell>
        <mxCell id="R2HS2P2y9apPICufh9Fz-11" value="Uploads" style="rounded=1;whiteSpace=wrap;html=1;" parent="H6W7bo5BwLUahlrWlTaL-11" vertex="1">
          <mxGeometry x="10" y="50.379999999999995" width="230" height="37" as="geometry" />
        </mxCell>
        <mxCell id="H6W7bo5BwLUahlrWlTaL-19" value="" style="group" parent="1" vertex="1" connectable="0">
          <mxGeometry x="820" y="419" width="250" height="330" as="geometry" />
        </mxCell>
        <mxCell id="uL4cEKJKNSIRRnAHL3zK-1" value="" style="rounded=0;whiteSpace=wrap;html=1;" parent="H6W7bo5BwLUahlrWlTaL-19" vertex="1">
          <mxGeometry y="47.72" width="250" height="222.28" as="geometry" />
        </mxCell>
        <mxCell id="uL4cEKJKNSIRRnAHL3zK-2" value="AMQP" style="rounded=0;whiteSpace=wrap;html=1;" parent="H6W7bo5BwLUahlrWlTaL-19" vertex="1">
          <mxGeometry y="25.12891745651305" width="70" height="22.587790972146564" as="geometry" />
        </mxCell>
        <mxCell id="uL4cEKJKNSIRRnAHL3zK-3" value="gNotifier" style="text;html=1;strokeColor=none;fillColor=none;align=center;verticalAlign=middle;whiteSpace=wrap;rounded=0;" parent="H6W7bo5BwLUahlrWlTaL-19" vertex="1">
          <mxGeometry x="5" y="51.1048770744816" width="60" height="33.881686458219846" as="geometry" />
        </mxCell>
        <mxCell id="uL4cEKJKNSIRRnAHL3zK-5" value="SMS (mock)" style="rounded=1;whiteSpace=wrap;html=1;" parent="H6W7bo5BwLUahlrWlTaL-19" vertex="1">
          <mxGeometry x="10" y="84.98500889712022" width="230" height="41.787413298471144" as="geometry" />
        </mxCell>
        <mxCell id="uL4cEKJKNSIRRnAHL3zK-6" value="SMTP" style="rounded=1;whiteSpace=wrap;html=1;" parent="H6W7bo5BwLUahlrWlTaL-19" vertex="1">
          <mxGeometry x="10" y="144.10814903584264" width="230" height="41.787413298471144" as="geometry" />
        </mxCell>
        <mxCell id="uL4cEKJKNSIRRnAHL3zK-16" value="" style="shape=image;verticalLabelPosition=bottom;labelBackgroundColor=default;verticalAlign=top;aspect=fixed;imageAspect=0;image=https://cdn.worldvectorlogo.com/logos/golang-1.svg;" parent="H6W7bo5BwLUahlrWlTaL-19" vertex="1">
          <mxGeometry x="80" width="60" height="30" as="geometry" />
        </mxCell>
        <mxCell id="H6W7bo5BwLUahlrWlTaL-35" value="Templates" style="rounded=1;whiteSpace=wrap;html=1;" parent="H6W7bo5BwLUahlrWlTaL-19" vertex="1">
          <mxGeometry x="10" y="201.00090024330893" width="230" height="41.787413298471144" as="geometry" />
        </mxCell>
        <mxCell id="H6W7bo5BwLUahlrWlTaL-20" value="" style="group" parent="1" vertex="1" connectable="0">
          <mxGeometry x="820" y="980" width="250" height="165" as="geometry" />
        </mxCell>
        <mxCell id="R2HS2P2y9apPICufh9Fz-19" value="" style="rounded=0;whiteSpace=wrap;html=1;" parent="H6W7bo5BwLUahlrWlTaL-20" vertex="1">
          <mxGeometry y="36" width="250" height="129" as="geometry" />
        </mxCell>
        <mxCell id="R2HS2P2y9apPICufh9Fz-20" value="gWrapper" style="text;html=1;strokeColor=none;fillColor=none;align=center;verticalAlign=middle;whiteSpace=wrap;rounded=0;" parent="H6W7bo5BwLUahlrWlTaL-20" vertex="1">
          <mxGeometry y="38" width="60" height="30" as="geometry" />
        </mxCell>
        <mxCell id="R2HS2P2y9apPICufh9Fz-21" value="SQL" style="rounded=1;whiteSpace=wrap;html=1;" parent="H6W7bo5BwLUahlrWlTaL-20" vertex="1">
          <mxGeometry x="10" y="68" width="230" height="37" as="geometry" />
        </mxCell>
        <mxCell id="R2HS2P2y9apPICufh9Fz-22" value="REST API" style="rounded=0;whiteSpace=wrap;html=1;" parent="H6W7bo5BwLUahlrWlTaL-20" vertex="1">
          <mxGeometry y="16" width="70" height="20" as="geometry" />
        </mxCell>
        <mxCell id="R2HS2P2y9apPICufh9Fz-24" value="" style="shape=image;verticalLabelPosition=bottom;labelBackgroundColor=default;verticalAlign=top;aspect=fixed;imageAspect=0;image=https://cdn.worldvectorlogo.com/logos/golang-1.svg;" parent="H6W7bo5BwLUahlrWlTaL-20" vertex="1">
          <mxGeometry x="75" width="60" height="30" as="geometry" />
        </mxCell>
        <mxCell id="H6W7bo5BwLUahlrWlTaL-21" value="" style="group" parent="1" vertex="1" connectable="0">
          <mxGeometry x="820" y="748.9999999999999" width="250" height="196.79000000000008" as="geometry" />
        </mxCell>
        <mxCell id="vKR88CdJworYy84HsG_A-5" value="" style="rounded=0;whiteSpace=wrap;html=1;" parent="H6W7bo5BwLUahlrWlTaL-21" vertex="1">
          <mxGeometry y="46.79000000000008" width="250" height="150" as="geometry" />
        </mxCell>
        <mxCell id="vKR88CdJworYy84HsG_A-6" value="gCollector" style="text;html=1;strokeColor=none;fillColor=none;align=center;verticalAlign=middle;whiteSpace=wrap;rounded=0;" parent="H6W7bo5BwLUahlrWlTaL-21" vertex="1">
          <mxGeometry x="5" y="51.54000000000008" width="60" height="30" as="geometry" />
        </mxCell>
        <mxCell id="vKR88CdJworYy84HsG_A-7" value="AMQP" style="rounded=0;whiteSpace=wrap;html=1;" parent="H6W7bo5BwLUahlrWlTaL-21" vertex="1">
          <mxGeometry y="26.790000000000077" width="70" height="20" as="geometry" />
        </mxCell>
        <mxCell id="vKR88CdJworYy84HsG_A-12" value="Puller" style="rounded=1;whiteSpace=wrap;html=1;" parent="H6W7bo5BwLUahlrWlTaL-21" vertex="1">
          <mxGeometry x="10" y="81.54000000000008" width="230" height="37" as="geometry" />
        </mxCell>
        <mxCell id="R2HS2P2y9apPICufh9Fz-3" value="" style="shape=image;verticalLabelPosition=bottom;labelBackgroundColor=default;verticalAlign=top;aspect=fixed;imageAspect=0;image=https://static-00.iconduck.com/assets.00/nestjs-icon-2048x2040-3rrvcej8.png;" parent="H6W7bo5BwLUahlrWlTaL-21" vertex="1">
          <mxGeometry x="70" width="50" height="49.79" as="geometry" />
        </mxCell>
        <mxCell id="H6W7bo5BwLUahlrWlTaL-22" value="" style="rounded=0;whiteSpace=wrap;html=1;" parent="1" vertex="1">
          <mxGeometry x="470" y="15" width="240" height="140" as="geometry" />
        </mxCell>
        <mxCell id="H6W7bo5BwLUahlrWlTaL-32" style="edgeStyle=orthogonalEdgeStyle;rounded=0;orthogonalLoop=1;jettySize=auto;html=1;exitX=0;exitY=0.75;exitDx=0;exitDy=0;entryX=0.5;entryY=0;entryDx=0;entryDy=0;startArrow=block;startFill=1;" parent="1" source="H6W7bo5BwLUahlrWlTaL-23" target="uL4cEKJKNSIRRnAHL3zK-28" edge="1">
          <mxGeometry relative="1" as="geometry">
            <Array as="points">
              <mxPoint x="410" y="9" />
              <mxPoint x="410" y="80" />
              <mxPoint x="-154" y="80" />
            </Array>
          </mxGeometry>
        </mxCell>
        <mxCell id="NqVfrc1vrR4CO1CbtlQ2-13" value="&lt;span style=&quot;font-size: 12px; background-color: rgb(251, 251, 251);&quot;&gt;/api/health -&amp;gt; http://localhost:8080/api&lt;/span&gt;" style="edgeLabel;html=1;align=center;verticalAlign=middle;resizable=0;points=[];" vertex="1" connectable="0" parent="H6W7bo5BwLUahlrWlTaL-32">
          <mxGeometry x="0.1346" y="-1" relative="1" as="geometry">
            <mxPoint as="offset" />
          </mxGeometry>
        </mxCell>
        <mxCell id="H6W7bo5BwLUahlrWlTaL-23" value="REST API" style="rounded=0;whiteSpace=wrap;html=1;" parent="1" vertex="1">
          <mxGeometry x="470" y="-5.889999999999986" width="70" height="20" as="geometry" />
        </mxCell>
        <mxCell id="H6W7bo5BwLUahlrWlTaL-24" value="gChecker" style="text;html=1;strokeColor=none;fillColor=none;align=center;verticalAlign=middle;whiteSpace=wrap;rounded=0;" parent="1" vertex="1">
          <mxGeometry x="470" y="15" width="60" height="30" as="geometry" />
        </mxCell>
        <mxCell id="H6W7bo5BwLUahlrWlTaL-25" value="Health Checker" style="rounded=1;whiteSpace=wrap;html=1;" parent="1" vertex="1">
          <mxGeometry x="475" y="45" width="230" height="30" as="geometry" />
        </mxCell>
        <mxCell id="H6W7bo5BwLUahlrWlTaL-26" value="" style="shape=image;verticalLabelPosition=bottom;labelBackgroundColor=default;verticalAlign=top;aspect=fixed;imageAspect=0;image=https://cdn.worldvectorlogo.com/logos/golang-1.svg;" parent="1" vertex="1">
          <mxGeometry x="550" y="-15.89" width="60" height="30" as="geometry" />
        </mxCell>
        <mxCell id="H6W7bo5BwLUahlrWlTaL-27" value="FS" style="shape=cylinder3;whiteSpace=wrap;html=1;boundedLbl=1;backgroundOutline=1;size=15;" parent="1" vertex="1">
          <mxGeometry x="1100" y="701.1600000000001" width="71" height="74.31" as="geometry" />
        </mxCell>
        <mxCell id="H6W7bo5BwLUahlrWlTaL-28" style="edgeStyle=orthogonalEdgeStyle;rounded=0;orthogonalLoop=1;jettySize=auto;html=1;exitX=1;exitY=0.75;exitDx=0;exitDy=0;entryX=0.5;entryY=0;entryDx=0;entryDy=0;entryPerimeter=0;endArrow=none;endFill=0;startArrow=block;startFill=1;" parent="1" source="uL4cEKJKNSIRRnAHL3zK-1" target="H6W7bo5BwLUahlrWlTaL-27" edge="1">
          <mxGeometry relative="1" as="geometry" />
        </mxCell>
        <mxCell id="H6W7bo5BwLUahlrWlTaL-29" value="FS" style="shape=cylinder3;whiteSpace=wrap;html=1;boundedLbl=1;backgroundOutline=1;size=15;" parent="1" vertex="1">
          <mxGeometry x="1109" y="945.7900000000001" width="71" height="74.31" as="geometry" />
        </mxCell>
        <mxCell id="H6W7bo5BwLUahlrWlTaL-34" style="edgeStyle=orthogonalEdgeStyle;rounded=0;orthogonalLoop=1;jettySize=auto;html=1;exitX=0.5;exitY=1;exitDx=0;exitDy=0;entryX=1;entryY=0.5;entryDx=0;entryDy=0;entryPerimeter=0;" parent="1" source="H6W7bo5BwLUahlrWlTaL-22" target="uL4cEKJKNSIRRnAHL3zK-19" edge="1">
          <mxGeometry relative="1" as="geometry" />
        </mxCell>
        <mxCell id="FwV4a1h5SoDyepfZP1lc-3" value="" style="group" parent="1" vertex="1" connectable="0">
          <mxGeometry x="540" y="865" width="220" height="50" as="geometry" />
        </mxCell>
        <mxCell id="vKR88CdJworYy84HsG_A-8" value="" style="shape=cylinder3;whiteSpace=wrap;html=1;boundedLbl=1;backgroundOutline=1;size=15;rotation=-90;" parent="FwV4a1h5SoDyepfZP1lc-3" vertex="1">
          <mxGeometry x="85" y="-85" width="50" height="220" as="geometry" />
        </mxCell>
        <mxCell id="vKR88CdJworYy84HsG_A-9" value="[table_name]" style="text;html=1;align=center;verticalAlign=middle;resizable=0;points=[];autosize=1;strokeColor=none;fillColor=none;" parent="FwV4a1h5SoDyepfZP1lc-3" vertex="1">
          <mxGeometry x="70" y="13" width="90" height="30" as="geometry" />
        </mxCell>
        <mxCell id="FwV4a1h5SoDyepfZP1lc-5" style="edgeStyle=orthogonalEdgeStyle;rounded=0;orthogonalLoop=1;jettySize=auto;html=1;exitX=1;exitY=0.5;exitDx=0;exitDy=0;entryX=0.5;entryY=0;entryDx=0;entryDy=0;entryPerimeter=0;" parent="1" source="f752bLTZDYG-dpByJCl9-1" target="vKR88CdJworYy84HsG_A-8" edge="1">
          <mxGeometry relative="1" as="geometry" />
        </mxCell>
        <mxCell id="FwV4a1h5SoDyepfZP1lc-6" style="edgeStyle=orthogonalEdgeStyle;rounded=0;orthogonalLoop=1;jettySize=auto;html=1;exitX=1;exitY=0.25;exitDx=0;exitDy=0;entryX=0.5;entryY=0;entryDx=0;entryDy=0;entryPerimeter=0;" parent="1" source="R2HS2P2y9apPICufh9Fz-6" target="On-y9z41SKKhghHkTIPx-8" edge="1">
          <mxGeometry relative="1" as="geometry" />
        </mxCell>
        <mxCell id="FwV4a1h5SoDyepfZP1lc-7" style="edgeStyle=orthogonalEdgeStyle;rounded=0;orthogonalLoop=1;jettySize=auto;html=1;exitX=1;exitY=0.25;exitDx=0;exitDy=0;entryX=0.5;entryY=1;entryDx=0;entryDy=0;entryPerimeter=0;" parent="1" source="f752bLTZDYG-dpByJCl9-1" target="On-y9z41SKKhghHkTIPx-8" edge="1">
          <mxGeometry relative="1" as="geometry" />
        </mxCell>
        <mxCell id="FwV4a1h5SoDyepfZP1lc-8" style="edgeStyle=orthogonalEdgeStyle;rounded=0;orthogonalLoop=1;jettySize=auto;html=1;exitX=1;exitY=0.75;exitDx=0;exitDy=0;entryX=0.5;entryY=0;entryDx=0;entryDy=0;entryPerimeter=0;" parent="1" source="vKR88CdJworYy84HsG_A-5" target="H6W7bo5BwLUahlrWlTaL-29" edge="1">
          <mxGeometry relative="1" as="geometry" />
        </mxCell>
        <mxCell id="FwV4a1h5SoDyepfZP1lc-9" style="edgeStyle=orthogonalEdgeStyle;rounded=0;orthogonalLoop=1;jettySize=auto;html=1;exitX=1;exitY=0.5;exitDx=0;exitDy=0;entryX=0.433;entryY=0.007;entryDx=0;entryDy=0;entryPerimeter=0;" parent="1" source="vKR88CdJworYy84HsG_A-5" target="vKR88CdJworYy84HsG_A-4" edge="1">
          <mxGeometry relative="1" as="geometry" />
        </mxCell>
        <mxCell id="FwV4a1h5SoDyepfZP1lc-10" style="edgeStyle=orthogonalEdgeStyle;rounded=0;orthogonalLoop=1;jettySize=auto;html=1;exitX=1;exitY=0.5;exitDx=0;exitDy=0;entryX=0.5;entryY=1;entryDx=0;entryDy=0;entryPerimeter=0;" parent="1" source="R2HS2P2y9apPICufh9Fz-19" target="vKR88CdJworYy84HsG_A-4" edge="1">
          <mxGeometry relative="1" as="geometry" />
        </mxCell>
        <mxCell id="0fmrV18e5SrLDhcrORTz-1" style="edgeStyle=orthogonalEdgeStyle;rounded=0;orthogonalLoop=1;jettySize=auto;html=1;exitX=1;exitY=0.5;exitDx=0;exitDy=0;entryX=0.5;entryY=1;entryDx=0;entryDy=0;entryPerimeter=0;" edge="1" parent="1" source="f752bLTZDYG-dpByJCl9-1" target="uL4cEKJKNSIRRnAHL3zK-36">
          <mxGeometry relative="1" as="geometry" />
        </mxCell>
      </root>
    </mxGraphModel>
  </diagram>
  <diagram id="mafsElPpFmZ0ZeTwdVgu" name="ER">
    <mxGraphModel dx="4298" dy="3047" grid="1" gridSize="10" guides="1" tooltips="1" connect="1" arrows="1" fold="1" page="1" pageScale="1" pageWidth="827" pageHeight="1169" math="0" shadow="0">
      <root>
        <mxCell id="0" />
        <mxCell id="1" parent="0" />
        <mxCell id="RHODHqZHqJ4hgx8U8l-g-46" value="" style="ellipse;shape=cloud;whiteSpace=wrap;html=1;" vertex="1" parent="1">
          <mxGeometry x="975" y="650" width="950" height="705" as="geometry" />
        </mxCell>
        <mxCell id="RHODHqZHqJ4hgx8U8l-g-44" value="" style="ellipse;shape=cloud;whiteSpace=wrap;html=1;" vertex="1" parent="1">
          <mxGeometry x="950" y="-60" width="950" height="705" as="geometry" />
        </mxCell>
        <mxCell id="RHODHqZHqJ4hgx8U8l-g-42" value="" style="ellipse;shape=cloud;whiteSpace=wrap;html=1;" vertex="1" parent="1">
          <mxGeometry x="-510" y="-190" width="1550" height="1180" as="geometry" />
        </mxCell>
        <mxCell id="DR23fv6RzuM_VLet7ANe-62" value="UserSchema (users)" style="shape=table;startSize=30;container=1;collapsible=1;childLayout=tableLayout;fixedRows=1;rowLines=0;fontStyle=1;align=center;resizeLast=1;html=1;" parent="1" vertex="1">
          <mxGeometry x="-60" y="40" width="340" height="390" as="geometry" />
        </mxCell>
        <mxCell id="DR23fv6RzuM_VLet7ANe-63" value="" style="shape=tableRow;horizontal=0;startSize=0;swimlaneHead=0;swimlaneBody=0;fillColor=none;collapsible=0;dropTarget=0;points=[[0,0.5],[1,0.5]];portConstraint=eastwest;top=0;left=0;right=0;bottom=1;" parent="DR23fv6RzuM_VLet7ANe-62" vertex="1">
          <mxGeometry y="30" width="340" height="30" as="geometry" />
        </mxCell>
        <mxCell id="DR23fv6RzuM_VLet7ANe-64" value="PK" style="shape=partialRectangle;connectable=0;fillColor=none;top=0;left=0;bottom=0;right=0;fontStyle=1;overflow=hidden;whiteSpace=wrap;html=1;" parent="DR23fv6RzuM_VLet7ANe-63" vertex="1">
          <mxGeometry width="30" height="30" as="geometry">
            <mxRectangle width="30" height="30" as="alternateBounds" />
          </mxGeometry>
        </mxCell>
        <mxCell id="DR23fv6RzuM_VLet7ANe-65" value="_id&#x9;Types.ObjectId" style="shape=partialRectangle;connectable=0;fillColor=none;top=0;left=0;bottom=0;right=0;align=left;spacingLeft=6;fontStyle=5;overflow=hidden;whiteSpace=wrap;html=1;" parent="DR23fv6RzuM_VLet7ANe-63" vertex="1">
          <mxGeometry x="30" width="310" height="30" as="geometry">
            <mxRectangle width="310" height="30" as="alternateBounds" />
          </mxGeometry>
        </mxCell>
        <mxCell id="DR23fv6RzuM_VLet7ANe-66" value="" style="shape=tableRow;horizontal=0;startSize=0;swimlaneHead=0;swimlaneBody=0;fillColor=none;collapsible=0;dropTarget=0;points=[[0,0.5],[1,0.5]];portConstraint=eastwest;top=0;left=0;right=0;bottom=0;" parent="DR23fv6RzuM_VLet7ANe-62" vertex="1">
          <mxGeometry y="60" width="340" height="30" as="geometry" />
        </mxCell>
        <mxCell id="DR23fv6RzuM_VLet7ANe-67" value="UQ" style="shape=partialRectangle;connectable=0;fillColor=none;top=0;left=0;bottom=0;right=0;editable=1;overflow=hidden;whiteSpace=wrap;html=1;" parent="DR23fv6RzuM_VLet7ANe-66" vertex="1">
          <mxGeometry width="30" height="30" as="geometry">
            <mxRectangle width="30" height="30" as="alternateBounds" />
          </mxGeometry>
        </mxCell>
        <mxCell id="DR23fv6RzuM_VLet7ANe-68" value="email String" style="shape=partialRectangle;connectable=0;fillColor=none;top=0;left=0;bottom=0;right=0;align=left;spacingLeft=6;overflow=hidden;whiteSpace=wrap;html=1;" parent="DR23fv6RzuM_VLet7ANe-66" vertex="1">
          <mxGeometry x="30" width="310" height="30" as="geometry">
            <mxRectangle width="310" height="30" as="alternateBounds" />
          </mxGeometry>
        </mxCell>
        <mxCell id="DR23fv6RzuM_VLet7ANe-72" value="" style="shape=tableRow;horizontal=0;startSize=0;swimlaneHead=0;swimlaneBody=0;fillColor=none;collapsible=0;dropTarget=0;points=[[0,0.5],[1,0.5]];portConstraint=eastwest;top=0;left=0;right=0;bottom=0;" parent="DR23fv6RzuM_VLet7ANe-62" vertex="1">
          <mxGeometry y="90" width="340" height="30" as="geometry" />
        </mxCell>
        <mxCell id="DR23fv6RzuM_VLet7ANe-73" value="UQ" style="shape=partialRectangle;connectable=0;fillColor=none;top=0;left=0;bottom=0;right=0;editable=1;overflow=hidden;whiteSpace=wrap;html=1;" parent="DR23fv6RzuM_VLet7ANe-72" vertex="1">
          <mxGeometry width="30" height="30" as="geometry">
            <mxRectangle width="30" height="30" as="alternateBounds" />
          </mxGeometry>
        </mxCell>
        <mxCell id="DR23fv6RzuM_VLet7ANe-74" value="phone&#x9;String" style="shape=partialRectangle;connectable=0;fillColor=none;top=0;left=0;bottom=0;right=0;align=left;spacingLeft=6;overflow=hidden;whiteSpace=wrap;html=1;" parent="DR23fv6RzuM_VLet7ANe-72" vertex="1">
          <mxGeometry x="30" width="310" height="30" as="geometry">
            <mxRectangle width="310" height="30" as="alternateBounds" />
          </mxGeometry>
        </mxCell>
        <mxCell id="DR23fv6RzuM_VLet7ANe-69" value="" style="shape=tableRow;horizontal=0;startSize=0;swimlaneHead=0;swimlaneBody=0;fillColor=none;collapsible=0;dropTarget=0;points=[[0,0.5],[1,0.5]];portConstraint=eastwest;top=0;left=0;right=0;bottom=0;" parent="DR23fv6RzuM_VLet7ANe-62" vertex="1">
          <mxGeometry y="120" width="340" height="30" as="geometry" />
        </mxCell>
        <mxCell id="DR23fv6RzuM_VLet7ANe-70" value="" style="shape=partialRectangle;connectable=0;fillColor=none;top=0;left=0;bottom=0;right=0;editable=1;overflow=hidden;whiteSpace=wrap;html=1;" parent="DR23fv6RzuM_VLet7ANe-69" vertex="1">
          <mxGeometry width="30" height="30" as="geometry">
            <mxRectangle width="30" height="30" as="alternateBounds" />
          </mxGeometry>
        </mxCell>
        <mxCell id="DR23fv6RzuM_VLet7ANe-71" value="first_name String" style="shape=partialRectangle;connectable=0;fillColor=none;top=0;left=0;bottom=0;right=0;align=left;spacingLeft=6;overflow=hidden;whiteSpace=wrap;html=1;" parent="DR23fv6RzuM_VLet7ANe-69" vertex="1">
          <mxGeometry x="30" width="310" height="30" as="geometry">
            <mxRectangle width="310" height="30" as="alternateBounds" />
          </mxGeometry>
        </mxCell>
        <mxCell id="23bVNCsX-t90Uu4Fj8G_-1" value="" style="shape=tableRow;horizontal=0;startSize=0;swimlaneHead=0;swimlaneBody=0;fillColor=none;collapsible=0;dropTarget=0;points=[[0,0.5],[1,0.5]];portConstraint=eastwest;top=0;left=0;right=0;bottom=0;" parent="DR23fv6RzuM_VLet7ANe-62" vertex="1">
          <mxGeometry y="150" width="340" height="30" as="geometry" />
        </mxCell>
        <mxCell id="23bVNCsX-t90Uu4Fj8G_-2" value="" style="shape=partialRectangle;connectable=0;fillColor=none;top=0;left=0;bottom=0;right=0;editable=1;overflow=hidden;whiteSpace=wrap;html=1;" parent="23bVNCsX-t90Uu4Fj8G_-1" vertex="1">
          <mxGeometry width="30" height="30" as="geometry">
            <mxRectangle width="30" height="30" as="alternateBounds" />
          </mxGeometry>
        </mxCell>
        <mxCell id="23bVNCsX-t90Uu4Fj8G_-3" value="last_name String" style="shape=partialRectangle;connectable=0;fillColor=none;top=0;left=0;bottom=0;right=0;align=left;spacingLeft=6;overflow=hidden;whiteSpace=wrap;html=1;" parent="23bVNCsX-t90Uu4Fj8G_-1" vertex="1">
          <mxGeometry x="30" width="310" height="30" as="geometry">
            <mxRectangle width="310" height="30" as="alternateBounds" />
          </mxGeometry>
        </mxCell>
        <mxCell id="DR23fv6RzuM_VLet7ANe-78" value="" style="shape=tableRow;horizontal=0;startSize=0;swimlaneHead=0;swimlaneBody=0;fillColor=none;collapsible=0;dropTarget=0;points=[[0,0.5],[1,0.5]];portConstraint=eastwest;top=0;left=0;right=0;bottom=0;" parent="DR23fv6RzuM_VLet7ANe-62" vertex="1">
          <mxGeometry y="180" width="340" height="30" as="geometry" />
        </mxCell>
        <mxCell id="DR23fv6RzuM_VLet7ANe-79" value="" style="shape=partialRectangle;connectable=0;fillColor=none;top=0;left=0;bottom=0;right=0;editable=1;overflow=hidden;whiteSpace=wrap;html=1;" parent="DR23fv6RzuM_VLet7ANe-78" vertex="1">
          <mxGeometry width="30" height="30" as="geometry">
            <mxRectangle width="30" height="30" as="alternateBounds" />
          </mxGeometry>
        </mxCell>
        <mxCell id="DR23fv6RzuM_VLet7ANe-80" value="password&#x9;&lt;span style=&quot;border-color: var(--border-color);&quot;&gt;&lt;span style=&quot;white-space: pre;&quot;&gt;&amp;nbsp;&amp;nbsp;&amp;nbsp;&amp;nbsp;&lt;/span&gt;&lt;/span&gt;String" style="shape=partialRectangle;connectable=0;fillColor=none;top=0;left=0;bottom=0;right=0;align=left;spacingLeft=6;overflow=hidden;whiteSpace=wrap;html=1;" parent="DR23fv6RzuM_VLet7ANe-78" vertex="1">
          <mxGeometry x="30" width="310" height="30" as="geometry">
            <mxRectangle width="310" height="30" as="alternateBounds" />
          </mxGeometry>
        </mxCell>
        <mxCell id="DR23fv6RzuM_VLet7ANe-81" value="" style="shape=tableRow;horizontal=0;startSize=0;swimlaneHead=0;swimlaneBody=0;fillColor=none;collapsible=0;dropTarget=0;points=[[0,0.5],[1,0.5]];portConstraint=eastwest;top=0;left=0;right=0;bottom=0;" parent="DR23fv6RzuM_VLet7ANe-62" vertex="1">
          <mxGeometry y="210" width="340" height="30" as="geometry" />
        </mxCell>
        <mxCell id="DR23fv6RzuM_VLet7ANe-82" value="" style="shape=partialRectangle;connectable=0;fillColor=none;top=0;left=0;bottom=0;right=0;editable=1;overflow=hidden;whiteSpace=wrap;html=1;" parent="DR23fv6RzuM_VLet7ANe-81" vertex="1">
          <mxGeometry width="30" height="30" as="geometry">
            <mxRectangle width="30" height="30" as="alternateBounds" />
          </mxGeometry>
        </mxCell>
        <mxCell id="DR23fv6RzuM_VLet7ANe-83" value="verfication&#x9;VerificationSchema" style="shape=partialRectangle;connectable=0;fillColor=none;top=0;left=0;bottom=0;right=0;align=left;spacingLeft=6;overflow=hidden;whiteSpace=wrap;html=1;" parent="DR23fv6RzuM_VLet7ANe-81" vertex="1">
          <mxGeometry x="30" width="310" height="30" as="geometry">
            <mxRectangle width="310" height="30" as="alternateBounds" />
          </mxGeometry>
        </mxCell>
        <mxCell id="23bVNCsX-t90Uu4Fj8G_-4" value="" style="shape=tableRow;horizontal=0;startSize=0;swimlaneHead=0;swimlaneBody=0;fillColor=none;collapsible=0;dropTarget=0;points=[[0,0.5],[1,0.5]];portConstraint=eastwest;top=0;left=0;right=0;bottom=0;" parent="DR23fv6RzuM_VLet7ANe-62" vertex="1">
          <mxGeometry y="240" width="340" height="30" as="geometry" />
        </mxCell>
        <mxCell id="23bVNCsX-t90Uu4Fj8G_-5" value="" style="shape=partialRectangle;connectable=0;fillColor=none;top=0;left=0;bottom=0;right=0;editable=1;overflow=hidden;whiteSpace=wrap;html=1;" parent="23bVNCsX-t90Uu4Fj8G_-4" vertex="1">
          <mxGeometry width="30" height="30" as="geometry">
            <mxRectangle width="30" height="30" as="alternateBounds" />
          </mxGeometry>
        </mxCell>
        <mxCell id="23bVNCsX-t90Uu4Fj8G_-6" value="confirm ConfirmSchema" style="shape=partialRectangle;connectable=0;fillColor=none;top=0;left=0;bottom=0;right=0;align=left;spacingLeft=6;overflow=hidden;whiteSpace=wrap;html=1;" parent="23bVNCsX-t90Uu4Fj8G_-4" vertex="1">
          <mxGeometry x="30" width="310" height="30" as="geometry">
            <mxRectangle width="310" height="30" as="alternateBounds" />
          </mxGeometry>
        </mxCell>
        <mxCell id="23bVNCsX-t90Uu4Fj8G_-52" value="" style="shape=tableRow;horizontal=0;startSize=0;swimlaneHead=0;swimlaneBody=0;fillColor=none;collapsible=0;dropTarget=0;points=[[0,0.5],[1,0.5]];portConstraint=eastwest;top=0;left=0;right=0;bottom=0;" parent="DR23fv6RzuM_VLet7ANe-62" vertex="1">
          <mxGeometry y="270" width="340" height="30" as="geometry" />
        </mxCell>
        <mxCell id="23bVNCsX-t90Uu4Fj8G_-53" value="" style="shape=partialRectangle;connectable=0;fillColor=none;top=0;left=0;bottom=0;right=0;editable=1;overflow=hidden;whiteSpace=wrap;html=1;" parent="23bVNCsX-t90Uu4Fj8G_-52" vertex="1">
          <mxGeometry width="30" height="30" as="geometry">
            <mxRectangle width="30" height="30" as="alternateBounds" />
          </mxGeometry>
        </mxCell>
        <mxCell id="23bVNCsX-t90Uu4Fj8G_-54" value="otp OTPSchema" style="shape=partialRectangle;connectable=0;fillColor=none;top=0;left=0;bottom=0;right=0;align=left;spacingLeft=6;overflow=hidden;whiteSpace=wrap;html=1;" parent="23bVNCsX-t90Uu4Fj8G_-52" vertex="1">
          <mxGeometry x="30" width="310" height="30" as="geometry">
            <mxRectangle width="310" height="30" as="alternateBounds" />
          </mxGeometry>
        </mxCell>
        <mxCell id="DR23fv6RzuM_VLet7ANe-84" value="" style="shape=tableRow;horizontal=0;startSize=0;swimlaneHead=0;swimlaneBody=0;fillColor=none;collapsible=0;dropTarget=0;points=[[0,0.5],[1,0.5]];portConstraint=eastwest;top=0;left=0;right=0;bottom=0;" parent="DR23fv6RzuM_VLet7ANe-62" vertex="1">
          <mxGeometry y="300" width="340" height="30" as="geometry" />
        </mxCell>
        <mxCell id="DR23fv6RzuM_VLet7ANe-85" value="" style="shape=partialRectangle;connectable=0;fillColor=none;top=0;left=0;bottom=0;right=0;editable=1;overflow=hidden;whiteSpace=wrap;html=1;" parent="DR23fv6RzuM_VLet7ANe-84" vertex="1">
          <mxGeometry width="30" height="30" as="geometry">
            <mxRectangle width="30" height="30" as="alternateBounds" />
          </mxGeometry>
        </mxCell>
        <mxCell id="DR23fv6RzuM_VLet7ANe-86" value="status&#x9;String&lt;span style=&quot;border-color: var(--border-color);&quot;&gt;&lt;span style=&quot;white-space: pre;&quot;&gt;&amp;nbsp;&amp;nbsp;&amp;nbsp;&amp;nbsp;&lt;/span&gt;&lt;/span&gt;ACTIVE | DELETED | BLOCKED" style="shape=partialRectangle;connectable=0;fillColor=none;top=0;left=0;bottom=0;right=0;align=left;spacingLeft=6;overflow=hidden;whiteSpace=wrap;html=1;" parent="DR23fv6RzuM_VLet7ANe-84" vertex="1">
          <mxGeometry x="30" width="310" height="30" as="geometry">
            <mxRectangle width="310" height="30" as="alternateBounds" />
          </mxGeometry>
        </mxCell>
        <mxCell id="DR23fv6RzuM_VLet7ANe-90" value="" style="shape=tableRow;horizontal=0;startSize=0;swimlaneHead=0;swimlaneBody=0;fillColor=none;collapsible=0;dropTarget=0;points=[[0,0.5],[1,0.5]];portConstraint=eastwest;top=0;left=0;right=0;bottom=0;" parent="DR23fv6RzuM_VLet7ANe-62" vertex="1">
          <mxGeometry y="330" width="340" height="30" as="geometry" />
        </mxCell>
        <mxCell id="DR23fv6RzuM_VLet7ANe-91" value="" style="shape=partialRectangle;connectable=0;fillColor=none;top=0;left=0;bottom=0;right=0;editable=1;overflow=hidden;whiteSpace=wrap;html=1;" parent="DR23fv6RzuM_VLet7ANe-90" vertex="1">
          <mxGeometry width="30" height="30" as="geometry">
            <mxRectangle width="30" height="30" as="alternateBounds" />
          </mxGeometry>
        </mxCell>
        <mxCell id="DR23fv6RzuM_VLet7ANe-92" value="created_at&#x9;Date" style="shape=partialRectangle;connectable=0;fillColor=none;top=0;left=0;bottom=0;right=0;align=left;spacingLeft=6;overflow=hidden;whiteSpace=wrap;html=1;" parent="DR23fv6RzuM_VLet7ANe-90" vertex="1">
          <mxGeometry x="30" width="310" height="30" as="geometry">
            <mxRectangle width="310" height="30" as="alternateBounds" />
          </mxGeometry>
        </mxCell>
        <mxCell id="DR23fv6RzuM_VLet7ANe-93" value="" style="shape=tableRow;horizontal=0;startSize=0;swimlaneHead=0;swimlaneBody=0;fillColor=none;collapsible=0;dropTarget=0;points=[[0,0.5],[1,0.5]];portConstraint=eastwest;top=0;left=0;right=0;bottom=0;" parent="DR23fv6RzuM_VLet7ANe-62" vertex="1">
          <mxGeometry y="360" width="340" height="30" as="geometry" />
        </mxCell>
        <mxCell id="DR23fv6RzuM_VLet7ANe-94" value="" style="shape=partialRectangle;connectable=0;fillColor=none;top=0;left=0;bottom=0;right=0;editable=1;overflow=hidden;whiteSpace=wrap;html=1;" parent="DR23fv6RzuM_VLet7ANe-93" vertex="1">
          <mxGeometry width="30" height="30" as="geometry">
            <mxRectangle width="30" height="30" as="alternateBounds" />
          </mxGeometry>
        </mxCell>
        <mxCell id="DR23fv6RzuM_VLet7ANe-95" value="update_at&#x9;Date" style="shape=partialRectangle;connectable=0;fillColor=none;top=0;left=0;bottom=0;right=0;align=left;spacingLeft=6;overflow=hidden;whiteSpace=wrap;html=1;" parent="DR23fv6RzuM_VLet7ANe-93" vertex="1">
          <mxGeometry x="30" width="310" height="30" as="geometry">
            <mxRectangle width="310" height="30" as="alternateBounds" />
          </mxGeometry>
        </mxCell>
        <mxCell id="DR23fv6RzuM_VLet7ANe-75" value="" style="shape=tableRow;horizontal=0;startSize=0;swimlaneHead=0;swimlaneBody=0;fillColor=none;collapsible=0;dropTarget=0;points=[[0,0.5],[1,0.5]];portConstraint=eastwest;top=0;left=0;right=0;bottom=0;" parent="1" vertex="1">
          <mxGeometry x="450" y="180" width="180" height="30" as="geometry" />
        </mxCell>
        <mxCell id="DR23fv6RzuM_VLet7ANe-76" value="" style="shape=partialRectangle;connectable=0;fillColor=none;top=0;left=0;bottom=0;right=0;editable=1;overflow=hidden;whiteSpace=wrap;html=1;" parent="DR23fv6RzuM_VLet7ANe-75" vertex="1">
          <mxGeometry width="30" height="30" as="geometry">
            <mxRectangle width="30" height="30" as="alternateBounds" />
          </mxGeometry>
        </mxCell>
        <mxCell id="DR23fv6RzuM_VLet7ANe-96" value="VerificationSchema" style="shape=table;startSize=30;container=1;collapsible=1;childLayout=tableLayout;fixedRows=1;rowLines=0;fontStyle=1;align=center;resizeLast=1;html=1;" parent="1" vertex="1">
          <mxGeometry x="390" y="75" width="180" height="240" as="geometry" />
        </mxCell>
        <mxCell id="DR23fv6RzuM_VLet7ANe-97" value="" style="shape=tableRow;horizontal=0;startSize=0;swimlaneHead=0;swimlaneBody=0;fillColor=none;collapsible=0;dropTarget=0;points=[[0,0.5],[1,0.5]];portConstraint=eastwest;top=0;left=0;right=0;bottom=1;" parent="DR23fv6RzuM_VLet7ANe-96" vertex="1">
          <mxGeometry y="30" width="180" height="30" as="geometry" />
        </mxCell>
        <mxCell id="DR23fv6RzuM_VLet7ANe-98" value="PK" style="shape=partialRectangle;connectable=0;fillColor=none;top=0;left=0;bottom=0;right=0;fontStyle=1;overflow=hidden;whiteSpace=wrap;html=1;" parent="DR23fv6RzuM_VLet7ANe-97" vertex="1">
          <mxGeometry width="30" height="30" as="geometry">
            <mxRectangle width="30" height="30" as="alternateBounds" />
          </mxGeometry>
        </mxCell>
        <mxCell id="DR23fv6RzuM_VLet7ANe-99" value="UniqueID" style="shape=partialRectangle;connectable=0;fillColor=none;top=0;left=0;bottom=0;right=0;align=left;spacingLeft=6;fontStyle=5;overflow=hidden;whiteSpace=wrap;html=1;" parent="DR23fv6RzuM_VLet7ANe-97" vertex="1">
          <mxGeometry x="30" width="150" height="30" as="geometry">
            <mxRectangle width="150" height="30" as="alternateBounds" />
          </mxGeometry>
        </mxCell>
        <mxCell id="DR23fv6RzuM_VLet7ANe-100" value="" style="shape=tableRow;horizontal=0;startSize=0;swimlaneHead=0;swimlaneBody=0;fillColor=none;collapsible=0;dropTarget=0;points=[[0,0.5],[1,0.5]];portConstraint=eastwest;top=0;left=0;right=0;bottom=0;" parent="DR23fv6RzuM_VLet7ANe-96" vertex="1">
          <mxGeometry y="60" width="180" height="30" as="geometry" />
        </mxCell>
        <mxCell id="DR23fv6RzuM_VLet7ANe-101" value="" style="shape=partialRectangle;connectable=0;fillColor=none;top=0;left=0;bottom=0;right=0;editable=1;overflow=hidden;whiteSpace=wrap;html=1;" parent="DR23fv6RzuM_VLet7ANe-100" vertex="1">
          <mxGeometry width="30" height="30" as="geometry">
            <mxRectangle width="30" height="30" as="alternateBounds" />
          </mxGeometry>
        </mxCell>
        <mxCell id="DR23fv6RzuM_VLet7ANe-102" value="new_phone" style="shape=partialRectangle;connectable=0;fillColor=none;top=0;left=0;bottom=0;right=0;align=left;spacingLeft=6;overflow=hidden;whiteSpace=wrap;html=1;" parent="DR23fv6RzuM_VLet7ANe-100" vertex="1">
          <mxGeometry x="30" width="150" height="30" as="geometry">
            <mxRectangle width="150" height="30" as="alternateBounds" />
          </mxGeometry>
        </mxCell>
        <mxCell id="DR23fv6RzuM_VLet7ANe-103" value="" style="shape=tableRow;horizontal=0;startSize=0;swimlaneHead=0;swimlaneBody=0;fillColor=none;collapsible=0;dropTarget=0;points=[[0,0.5],[1,0.5]];portConstraint=eastwest;top=0;left=0;right=0;bottom=0;" parent="DR23fv6RzuM_VLet7ANe-96" vertex="1">
          <mxGeometry y="90" width="180" height="30" as="geometry" />
        </mxCell>
        <mxCell id="DR23fv6RzuM_VLet7ANe-104" value="" style="shape=partialRectangle;connectable=0;fillColor=none;top=0;left=0;bottom=0;right=0;editable=1;overflow=hidden;whiteSpace=wrap;html=1;" parent="DR23fv6RzuM_VLet7ANe-103" vertex="1">
          <mxGeometry width="30" height="30" as="geometry">
            <mxRectangle width="30" height="30" as="alternateBounds" />
          </mxGeometry>
        </mxCell>
        <mxCell id="DR23fv6RzuM_VLet7ANe-105" value="new_phone_code" style="shape=partialRectangle;connectable=0;fillColor=none;top=0;left=0;bottom=0;right=0;align=left;spacingLeft=6;overflow=hidden;whiteSpace=wrap;html=1;" parent="DR23fv6RzuM_VLet7ANe-103" vertex="1">
          <mxGeometry x="30" width="150" height="30" as="geometry">
            <mxRectangle width="150" height="30" as="alternateBounds" />
          </mxGeometry>
        </mxCell>
        <mxCell id="DR23fv6RzuM_VLet7ANe-106" value="" style="shape=tableRow;horizontal=0;startSize=0;swimlaneHead=0;swimlaneBody=0;fillColor=none;collapsible=0;dropTarget=0;points=[[0,0.5],[1,0.5]];portConstraint=eastwest;top=0;left=0;right=0;bottom=0;" parent="DR23fv6RzuM_VLet7ANe-96" vertex="1">
          <mxGeometry y="120" width="180" height="30" as="geometry" />
        </mxCell>
        <mxCell id="DR23fv6RzuM_VLet7ANe-107" value="" style="shape=partialRectangle;connectable=0;fillColor=none;top=0;left=0;bottom=0;right=0;editable=1;overflow=hidden;whiteSpace=wrap;html=1;" parent="DR23fv6RzuM_VLet7ANe-106" vertex="1">
          <mxGeometry width="30" height="30" as="geometry">
            <mxRectangle width="30" height="30" as="alternateBounds" />
          </mxGeometry>
        </mxCell>
        <mxCell id="DR23fv6RzuM_VLet7ANe-108" value="new_phone_code_date" style="shape=partialRectangle;connectable=0;fillColor=none;top=0;left=0;bottom=0;right=0;align=left;spacingLeft=6;overflow=hidden;whiteSpace=wrap;html=1;" parent="DR23fv6RzuM_VLet7ANe-106" vertex="1">
          <mxGeometry x="30" width="150" height="30" as="geometry">
            <mxRectangle width="150" height="30" as="alternateBounds" />
          </mxGeometry>
        </mxCell>
        <mxCell id="DR23fv6RzuM_VLet7ANe-109" value="" style="shape=tableRow;horizontal=0;startSize=0;swimlaneHead=0;swimlaneBody=0;fillColor=none;collapsible=0;dropTarget=0;points=[[0,0.5],[1,0.5]];portConstraint=eastwest;top=0;left=0;right=0;bottom=0;" parent="DR23fv6RzuM_VLet7ANe-96" vertex="1">
          <mxGeometry y="150" width="180" height="30" as="geometry" />
        </mxCell>
        <mxCell id="DR23fv6RzuM_VLet7ANe-110" value="" style="shape=partialRectangle;connectable=0;fillColor=none;top=0;left=0;bottom=0;right=0;editable=1;overflow=hidden;whiteSpace=wrap;html=1;" parent="DR23fv6RzuM_VLet7ANe-109" vertex="1">
          <mxGeometry width="30" height="30" as="geometry">
            <mxRectangle width="30" height="30" as="alternateBounds" />
          </mxGeometry>
        </mxCell>
        <mxCell id="DR23fv6RzuM_VLet7ANe-111" value="new_email" style="shape=partialRectangle;connectable=0;fillColor=none;top=0;left=0;bottom=0;right=0;align=left;spacingLeft=6;overflow=hidden;whiteSpace=wrap;html=1;" parent="DR23fv6RzuM_VLet7ANe-109" vertex="1">
          <mxGeometry x="30" width="150" height="30" as="geometry">
            <mxRectangle width="150" height="30" as="alternateBounds" />
          </mxGeometry>
        </mxCell>
        <mxCell id="DR23fv6RzuM_VLet7ANe-112" value="" style="shape=tableRow;horizontal=0;startSize=0;swimlaneHead=0;swimlaneBody=0;fillColor=none;collapsible=0;dropTarget=0;points=[[0,0.5],[1,0.5]];portConstraint=eastwest;top=0;left=0;right=0;bottom=0;" parent="DR23fv6RzuM_VLet7ANe-96" vertex="1">
          <mxGeometry y="180" width="180" height="30" as="geometry" />
        </mxCell>
        <mxCell id="DR23fv6RzuM_VLet7ANe-113" value="" style="shape=partialRectangle;connectable=0;fillColor=none;top=0;left=0;bottom=0;right=0;editable=1;overflow=hidden;whiteSpace=wrap;html=1;" parent="DR23fv6RzuM_VLet7ANe-112" vertex="1">
          <mxGeometry width="30" height="30" as="geometry">
            <mxRectangle width="30" height="30" as="alternateBounds" />
          </mxGeometry>
        </mxCell>
        <mxCell id="DR23fv6RzuM_VLet7ANe-114" value="new_email_code" style="shape=partialRectangle;connectable=0;fillColor=none;top=0;left=0;bottom=0;right=0;align=left;spacingLeft=6;overflow=hidden;whiteSpace=wrap;html=1;" parent="DR23fv6RzuM_VLet7ANe-112" vertex="1">
          <mxGeometry x="30" width="150" height="30" as="geometry">
            <mxRectangle width="150" height="30" as="alternateBounds" />
          </mxGeometry>
        </mxCell>
        <mxCell id="DR23fv6RzuM_VLet7ANe-115" value="" style="shape=tableRow;horizontal=0;startSize=0;swimlaneHead=0;swimlaneBody=0;fillColor=none;collapsible=0;dropTarget=0;points=[[0,0.5],[1,0.5]];portConstraint=eastwest;top=0;left=0;right=0;bottom=0;" parent="DR23fv6RzuM_VLet7ANe-96" vertex="1">
          <mxGeometry y="210" width="180" height="30" as="geometry" />
        </mxCell>
        <mxCell id="DR23fv6RzuM_VLet7ANe-116" value="" style="shape=partialRectangle;connectable=0;fillColor=none;top=0;left=0;bottom=0;right=0;editable=1;overflow=hidden;whiteSpace=wrap;html=1;" parent="DR23fv6RzuM_VLet7ANe-115" vertex="1">
          <mxGeometry width="30" height="30" as="geometry">
            <mxRectangle width="30" height="30" as="alternateBounds" />
          </mxGeometry>
        </mxCell>
        <mxCell id="DR23fv6RzuM_VLet7ANe-117" value="new_phone_code_date" style="shape=partialRectangle;connectable=0;fillColor=none;top=0;left=0;bottom=0;right=0;align=left;spacingLeft=6;overflow=hidden;whiteSpace=wrap;html=1;" parent="DR23fv6RzuM_VLet7ANe-115" vertex="1">
          <mxGeometry x="30" width="150" height="30" as="geometry">
            <mxRectangle width="150" height="30" as="alternateBounds" />
          </mxGeometry>
        </mxCell>
        <mxCell id="DR23fv6RzuM_VLet7ANe-118" style="edgeStyle=orthogonalEdgeStyle;rounded=0;orthogonalLoop=1;jettySize=auto;html=1;exitX=1;exitY=0.5;exitDx=0;exitDy=0;entryX=0;entryY=0.5;entryDx=0;entryDy=0;" parent="1" source="DR23fv6RzuM_VLet7ANe-81" target="DR23fv6RzuM_VLet7ANe-97" edge="1">
          <mxGeometry relative="1" as="geometry" />
        </mxCell>
        <mxCell id="Sa_b5FBhGGGrX28TxCKq-1" value="TopicSchema (topics)" style="shape=table;startSize=30;container=1;collapsible=1;childLayout=tableLayout;fixedRows=1;rowLines=0;fontStyle=1;align=center;resizeLast=1;html=1;" parent="1" vertex="1">
          <mxGeometry x="1190" y="150" width="335" height="270" as="geometry" />
        </mxCell>
        <mxCell id="Sa_b5FBhGGGrX28TxCKq-2" value="" style="shape=tableRow;horizontal=0;startSize=0;swimlaneHead=0;swimlaneBody=0;fillColor=none;collapsible=0;dropTarget=0;points=[[0,0.5],[1,0.5]];portConstraint=eastwest;top=0;left=0;right=0;bottom=1;" parent="Sa_b5FBhGGGrX28TxCKq-1" vertex="1">
          <mxGeometry y="30" width="335" height="30" as="geometry" />
        </mxCell>
        <mxCell id="Sa_b5FBhGGGrX28TxCKq-3" value="PK" style="shape=partialRectangle;connectable=0;fillColor=none;top=0;left=0;bottom=0;right=0;fontStyle=1;overflow=hidden;whiteSpace=wrap;html=1;" parent="Sa_b5FBhGGGrX28TxCKq-2" vertex="1">
          <mxGeometry width="30" height="30" as="geometry">
            <mxRectangle width="30" height="30" as="alternateBounds" />
          </mxGeometry>
        </mxCell>
        <mxCell id="Sa_b5FBhGGGrX28TxCKq-4" value="id UUID" style="shape=partialRectangle;connectable=0;fillColor=none;top=0;left=0;bottom=0;right=0;align=left;spacingLeft=6;fontStyle=5;overflow=hidden;whiteSpace=wrap;html=1;" parent="Sa_b5FBhGGGrX28TxCKq-2" vertex="1">
          <mxGeometry x="30" width="305" height="30" as="geometry">
            <mxRectangle width="305" height="30" as="alternateBounds" />
          </mxGeometry>
        </mxCell>
        <mxCell id="Sa_b5FBhGGGrX28TxCKq-5" value="" style="shape=tableRow;horizontal=0;startSize=0;swimlaneHead=0;swimlaneBody=0;fillColor=none;collapsible=0;dropTarget=0;points=[[0,0.5],[1,0.5]];portConstraint=eastwest;top=0;left=0;right=0;bottom=0;" parent="Sa_b5FBhGGGrX28TxCKq-1" vertex="1">
          <mxGeometry y="60" width="335" height="30" as="geometry" />
        </mxCell>
        <mxCell id="Sa_b5FBhGGGrX28TxCKq-6" value="FK" style="shape=partialRectangle;connectable=0;fillColor=none;top=0;left=0;bottom=0;right=0;editable=1;overflow=hidden;whiteSpace=wrap;html=1;" parent="Sa_b5FBhGGGrX28TxCKq-5" vertex="1">
          <mxGeometry width="30" height="30" as="geometry">
            <mxRectangle width="30" height="30" as="alternateBounds" />
          </mxGeometry>
        </mxCell>
        <mxCell id="Sa_b5FBhGGGrX28TxCKq-7" value="owner_id&lt;span style=&quot;&quot;&gt;&lt;span style=&quot;white-space: pre;&quot;&gt;&amp;nbsp;Varchar&lt;/span&gt;&lt;/span&gt;" style="shape=partialRectangle;connectable=0;fillColor=none;top=0;left=0;bottom=0;right=0;align=left;spacingLeft=6;overflow=hidden;whiteSpace=wrap;html=1;" parent="Sa_b5FBhGGGrX28TxCKq-5" vertex="1">
          <mxGeometry x="30" width="305" height="30" as="geometry">
            <mxRectangle width="305" height="30" as="alternateBounds" />
          </mxGeometry>
        </mxCell>
        <mxCell id="Sa_b5FBhGGGrX28TxCKq-46" value="" style="shape=tableRow;horizontal=0;startSize=0;swimlaneHead=0;swimlaneBody=0;fillColor=none;collapsible=0;dropTarget=0;points=[[0,0.5],[1,0.5]];portConstraint=eastwest;top=0;left=0;right=0;bottom=0;" parent="Sa_b5FBhGGGrX28TxCKq-1" vertex="1">
          <mxGeometry y="90" width="335" height="30" as="geometry" />
        </mxCell>
        <mxCell id="Sa_b5FBhGGGrX28TxCKq-47" value="" style="shape=partialRectangle;connectable=0;fillColor=none;top=0;left=0;bottom=0;right=0;editable=1;overflow=hidden;whiteSpace=wrap;html=1;" parent="Sa_b5FBhGGGrX28TxCKq-46" vertex="1">
          <mxGeometry width="30" height="30" as="geometry">
            <mxRectangle width="30" height="30" as="alternateBounds" />
          </mxGeometry>
        </mxCell>
        <mxCell id="Sa_b5FBhGGGrX28TxCKq-48" value="uid&lt;span style=&quot;white-space: pre;&quot;&gt;&#x9;&lt;/span&gt;String" style="shape=partialRectangle;connectable=0;fillColor=none;top=0;left=0;bottom=0;right=0;align=left;spacingLeft=6;overflow=hidden;whiteSpace=wrap;html=1;" parent="Sa_b5FBhGGGrX28TxCKq-46" vertex="1">
          <mxGeometry x="30" width="305" height="30" as="geometry">
            <mxRectangle width="305" height="30" as="alternateBounds" />
          </mxGeometry>
        </mxCell>
        <mxCell id="Sa_b5FBhGGGrX28TxCKq-8" value="" style="shape=tableRow;horizontal=0;startSize=0;swimlaneHead=0;swimlaneBody=0;fillColor=none;collapsible=0;dropTarget=0;points=[[0,0.5],[1,0.5]];portConstraint=eastwest;top=0;left=0;right=0;bottom=0;" parent="Sa_b5FBhGGGrX28TxCKq-1" vertex="1">
          <mxGeometry y="120" width="335" height="30" as="geometry" />
        </mxCell>
        <mxCell id="Sa_b5FBhGGGrX28TxCKq-9" value="" style="shape=partialRectangle;connectable=0;fillColor=none;top=0;left=0;bottom=0;right=0;editable=1;overflow=hidden;whiteSpace=wrap;html=1;" parent="Sa_b5FBhGGGrX28TxCKq-8" vertex="1">
          <mxGeometry width="30" height="30" as="geometry">
            <mxRectangle width="30" height="30" as="alternateBounds" />
          </mxGeometry>
        </mxCell>
        <mxCell id="Sa_b5FBhGGGrX28TxCKq-10" value="title String" style="shape=partialRectangle;connectable=0;fillColor=none;top=0;left=0;bottom=0;right=0;align=left;spacingLeft=6;overflow=hidden;whiteSpace=wrap;html=1;" parent="Sa_b5FBhGGGrX28TxCKq-8" vertex="1">
          <mxGeometry x="30" width="305" height="30" as="geometry">
            <mxRectangle width="305" height="30" as="alternateBounds" />
          </mxGeometry>
        </mxCell>
        <mxCell id="Sa_b5FBhGGGrX28TxCKq-11" value="" style="shape=tableRow;horizontal=0;startSize=0;swimlaneHead=0;swimlaneBody=0;fillColor=none;collapsible=0;dropTarget=0;points=[[0,0.5],[1,0.5]];portConstraint=eastwest;top=0;left=0;right=0;bottom=0;" parent="Sa_b5FBhGGGrX28TxCKq-1" vertex="1">
          <mxGeometry y="150" width="335" height="30" as="geometry" />
        </mxCell>
        <mxCell id="Sa_b5FBhGGGrX28TxCKq-12" value="" style="shape=partialRectangle;connectable=0;fillColor=none;top=0;left=0;bottom=0;right=0;editable=1;overflow=hidden;whiteSpace=wrap;html=1;" parent="Sa_b5FBhGGGrX28TxCKq-11" vertex="1">
          <mxGeometry width="30" height="30" as="geometry">
            <mxRectangle width="30" height="30" as="alternateBounds" />
          </mxGeometry>
        </mxCell>
        <mxCell id="Sa_b5FBhGGGrX28TxCKq-13" value="desc&lt;span style=&quot;white-space: pre;&quot;&gt;&#x9;&lt;/span&gt;String" style="shape=partialRectangle;connectable=0;fillColor=none;top=0;left=0;bottom=0;right=0;align=left;spacingLeft=6;overflow=hidden;whiteSpace=wrap;html=1;" parent="Sa_b5FBhGGGrX28TxCKq-11" vertex="1">
          <mxGeometry x="30" width="305" height="30" as="geometry">
            <mxRectangle width="305" height="30" as="alternateBounds" />
          </mxGeometry>
        </mxCell>
        <mxCell id="Sa_b5FBhGGGrX28TxCKq-14" value="" style="shape=tableRow;horizontal=0;startSize=0;swimlaneHead=0;swimlaneBody=0;fillColor=none;collapsible=0;dropTarget=0;points=[[0,0.5],[1,0.5]];portConstraint=eastwest;top=0;left=0;right=0;bottom=0;" parent="Sa_b5FBhGGGrX28TxCKq-1" vertex="1">
          <mxGeometry y="180" width="335" height="30" as="geometry" />
        </mxCell>
        <mxCell id="Sa_b5FBhGGGrX28TxCKq-15" value="" style="shape=partialRectangle;connectable=0;fillColor=none;top=0;left=0;bottom=0;right=0;editable=1;overflow=hidden;whiteSpace=wrap;html=1;" parent="Sa_b5FBhGGGrX28TxCKq-14" vertex="1">
          <mxGeometry width="30" height="30" as="geometry">
            <mxRectangle width="30" height="30" as="alternateBounds" />
          </mxGeometry>
        </mxCell>
        <mxCell id="Sa_b5FBhGGGrX28TxCKq-16" value="status&lt;span style=&quot;white-space: pre;&quot;&gt;&#x9;&lt;/span&gt;String&lt;span style=&quot;white-space: pre;&quot;&gt;&#x9;&lt;/span&gt;ACTIVE | CLOSED | ARCHIVED&lt;span style=&quot;white-space: pre;&quot;&gt;&#x9;&lt;/span&gt;" style="shape=partialRectangle;connectable=0;fillColor=none;top=0;left=0;bottom=0;right=0;align=left;spacingLeft=6;overflow=hidden;whiteSpace=wrap;html=1;" parent="Sa_b5FBhGGGrX28TxCKq-14" vertex="1">
          <mxGeometry x="30" width="305" height="30" as="geometry">
            <mxRectangle width="305" height="30" as="alternateBounds" />
          </mxGeometry>
        </mxCell>
        <mxCell id="Sa_b5FBhGGGrX28TxCKq-40" value="" style="shape=tableRow;horizontal=0;startSize=0;swimlaneHead=0;swimlaneBody=0;fillColor=none;collapsible=0;dropTarget=0;points=[[0,0.5],[1,0.5]];portConstraint=eastwest;top=0;left=0;right=0;bottom=0;" parent="Sa_b5FBhGGGrX28TxCKq-1" vertex="1">
          <mxGeometry y="210" width="335" height="30" as="geometry" />
        </mxCell>
        <mxCell id="Sa_b5FBhGGGrX28TxCKq-41" value="" style="shape=partialRectangle;connectable=0;fillColor=none;top=0;left=0;bottom=0;right=0;editable=1;overflow=hidden;whiteSpace=wrap;html=1;" parent="Sa_b5FBhGGGrX28TxCKq-40" vertex="1">
          <mxGeometry width="30" height="30" as="geometry">
            <mxRectangle width="30" height="30" as="alternateBounds" />
          </mxGeometry>
        </mxCell>
        <mxCell id="Sa_b5FBhGGGrX28TxCKq-42" value="created_at&lt;span style=&quot;white-space: pre;&quot;&gt;&#x9;&lt;/span&gt;Date" style="shape=partialRectangle;connectable=0;fillColor=none;top=0;left=0;bottom=0;right=0;align=left;spacingLeft=6;overflow=hidden;whiteSpace=wrap;html=1;" parent="Sa_b5FBhGGGrX28TxCKq-40" vertex="1">
          <mxGeometry x="30" width="305" height="30" as="geometry">
            <mxRectangle width="305" height="30" as="alternateBounds" />
          </mxGeometry>
        </mxCell>
        <mxCell id="Sa_b5FBhGGGrX28TxCKq-43" value="" style="shape=tableRow;horizontal=0;startSize=0;swimlaneHead=0;swimlaneBody=0;fillColor=none;collapsible=0;dropTarget=0;points=[[0,0.5],[1,0.5]];portConstraint=eastwest;top=0;left=0;right=0;bottom=0;" parent="Sa_b5FBhGGGrX28TxCKq-1" vertex="1">
          <mxGeometry y="240" width="335" height="30" as="geometry" />
        </mxCell>
        <mxCell id="Sa_b5FBhGGGrX28TxCKq-44" value="" style="shape=partialRectangle;connectable=0;fillColor=none;top=0;left=0;bottom=0;right=0;editable=1;overflow=hidden;whiteSpace=wrap;html=1;" parent="Sa_b5FBhGGGrX28TxCKq-43" vertex="1">
          <mxGeometry width="30" height="30" as="geometry">
            <mxRectangle width="30" height="30" as="alternateBounds" />
          </mxGeometry>
        </mxCell>
        <mxCell id="Sa_b5FBhGGGrX28TxCKq-45" value="update_at&lt;span style=&quot;white-space: pre;&quot;&gt;&#x9;&lt;/span&gt;Date" style="shape=partialRectangle;connectable=0;fillColor=none;top=0;left=0;bottom=0;right=0;align=left;spacingLeft=6;overflow=hidden;whiteSpace=wrap;html=1;" parent="Sa_b5FBhGGGrX28TxCKq-43" vertex="1">
          <mxGeometry x="30" width="305" height="30" as="geometry">
            <mxRectangle width="305" height="30" as="alternateBounds" />
          </mxGeometry>
        </mxCell>
        <mxCell id="23bVNCsX-t90Uu4Fj8G_-7" value="ConfirmationSchema" style="shape=table;startSize=30;container=1;collapsible=1;childLayout=tableLayout;fixedRows=1;rowLines=0;fontStyle=1;align=center;resizeLast=1;html=1;" parent="1" vertex="1">
          <mxGeometry x="390" y="345" width="180" height="240" as="geometry" />
        </mxCell>
        <mxCell id="23bVNCsX-t90Uu4Fj8G_-8" value="" style="shape=tableRow;horizontal=0;startSize=0;swimlaneHead=0;swimlaneBody=0;fillColor=none;collapsible=0;dropTarget=0;points=[[0,0.5],[1,0.5]];portConstraint=eastwest;top=0;left=0;right=0;bottom=1;" parent="23bVNCsX-t90Uu4Fj8G_-7" vertex="1">
          <mxGeometry y="30" width="180" height="30" as="geometry" />
        </mxCell>
        <mxCell id="23bVNCsX-t90Uu4Fj8G_-9" value="PK" style="shape=partialRectangle;connectable=0;fillColor=none;top=0;left=0;bottom=0;right=0;fontStyle=1;overflow=hidden;whiteSpace=wrap;html=1;" parent="23bVNCsX-t90Uu4Fj8G_-8" vertex="1">
          <mxGeometry width="30" height="30" as="geometry">
            <mxRectangle width="30" height="30" as="alternateBounds" />
          </mxGeometry>
        </mxCell>
        <mxCell id="23bVNCsX-t90Uu4Fj8G_-10" value="UniqueID" style="shape=partialRectangle;connectable=0;fillColor=none;top=0;left=0;bottom=0;right=0;align=left;spacingLeft=6;fontStyle=5;overflow=hidden;whiteSpace=wrap;html=1;" parent="23bVNCsX-t90Uu4Fj8G_-8" vertex="1">
          <mxGeometry x="30" width="150" height="30" as="geometry">
            <mxRectangle width="150" height="30" as="alternateBounds" />
          </mxGeometry>
        </mxCell>
        <mxCell id="23bVNCsX-t90Uu4Fj8G_-11" value="" style="shape=tableRow;horizontal=0;startSize=0;swimlaneHead=0;swimlaneBody=0;fillColor=none;collapsible=0;dropTarget=0;points=[[0,0.5],[1,0.5]];portConstraint=eastwest;top=0;left=0;right=0;bottom=0;" parent="23bVNCsX-t90Uu4Fj8G_-7" vertex="1">
          <mxGeometry y="60" width="180" height="30" as="geometry" />
        </mxCell>
        <mxCell id="23bVNCsX-t90Uu4Fj8G_-12" value="" style="shape=partialRectangle;connectable=0;fillColor=none;top=0;left=0;bottom=0;right=0;editable=1;overflow=hidden;whiteSpace=wrap;html=1;" parent="23bVNCsX-t90Uu4Fj8G_-11" vertex="1">
          <mxGeometry width="30" height="30" as="geometry">
            <mxRectangle width="30" height="30" as="alternateBounds" />
          </mxGeometry>
        </mxCell>
        <mxCell id="23bVNCsX-t90Uu4Fj8G_-13" value="new_phone" style="shape=partialRectangle;connectable=0;fillColor=none;top=0;left=0;bottom=0;right=0;align=left;spacingLeft=6;overflow=hidden;whiteSpace=wrap;html=1;" parent="23bVNCsX-t90Uu4Fj8G_-11" vertex="1">
          <mxGeometry x="30" width="150" height="30" as="geometry">
            <mxRectangle width="150" height="30" as="alternateBounds" />
          </mxGeometry>
        </mxCell>
        <mxCell id="23bVNCsX-t90Uu4Fj8G_-14" value="" style="shape=tableRow;horizontal=0;startSize=0;swimlaneHead=0;swimlaneBody=0;fillColor=none;collapsible=0;dropTarget=0;points=[[0,0.5],[1,0.5]];portConstraint=eastwest;top=0;left=0;right=0;bottom=0;" parent="23bVNCsX-t90Uu4Fj8G_-7" vertex="1">
          <mxGeometry y="90" width="180" height="30" as="geometry" />
        </mxCell>
        <mxCell id="23bVNCsX-t90Uu4Fj8G_-15" value="" style="shape=partialRectangle;connectable=0;fillColor=none;top=0;left=0;bottom=0;right=0;editable=1;overflow=hidden;whiteSpace=wrap;html=1;" parent="23bVNCsX-t90Uu4Fj8G_-14" vertex="1">
          <mxGeometry width="30" height="30" as="geometry">
            <mxRectangle width="30" height="30" as="alternateBounds" />
          </mxGeometry>
        </mxCell>
        <mxCell id="23bVNCsX-t90Uu4Fj8G_-16" value="new_phone_code" style="shape=partialRectangle;connectable=0;fillColor=none;top=0;left=0;bottom=0;right=0;align=left;spacingLeft=6;overflow=hidden;whiteSpace=wrap;html=1;" parent="23bVNCsX-t90Uu4Fj8G_-14" vertex="1">
          <mxGeometry x="30" width="150" height="30" as="geometry">
            <mxRectangle width="150" height="30" as="alternateBounds" />
          </mxGeometry>
        </mxCell>
        <mxCell id="23bVNCsX-t90Uu4Fj8G_-17" value="" style="shape=tableRow;horizontal=0;startSize=0;swimlaneHead=0;swimlaneBody=0;fillColor=none;collapsible=0;dropTarget=0;points=[[0,0.5],[1,0.5]];portConstraint=eastwest;top=0;left=0;right=0;bottom=0;" parent="23bVNCsX-t90Uu4Fj8G_-7" vertex="1">
          <mxGeometry y="120" width="180" height="30" as="geometry" />
        </mxCell>
        <mxCell id="23bVNCsX-t90Uu4Fj8G_-18" value="" style="shape=partialRectangle;connectable=0;fillColor=none;top=0;left=0;bottom=0;right=0;editable=1;overflow=hidden;whiteSpace=wrap;html=1;" parent="23bVNCsX-t90Uu4Fj8G_-17" vertex="1">
          <mxGeometry width="30" height="30" as="geometry">
            <mxRectangle width="30" height="30" as="alternateBounds" />
          </mxGeometry>
        </mxCell>
        <mxCell id="23bVNCsX-t90Uu4Fj8G_-19" value="new_phone_code_date" style="shape=partialRectangle;connectable=0;fillColor=none;top=0;left=0;bottom=0;right=0;align=left;spacingLeft=6;overflow=hidden;whiteSpace=wrap;html=1;" parent="23bVNCsX-t90Uu4Fj8G_-17" vertex="1">
          <mxGeometry x="30" width="150" height="30" as="geometry">
            <mxRectangle width="150" height="30" as="alternateBounds" />
          </mxGeometry>
        </mxCell>
        <mxCell id="23bVNCsX-t90Uu4Fj8G_-20" value="" style="shape=tableRow;horizontal=0;startSize=0;swimlaneHead=0;swimlaneBody=0;fillColor=none;collapsible=0;dropTarget=0;points=[[0,0.5],[1,0.5]];portConstraint=eastwest;top=0;left=0;right=0;bottom=0;" parent="23bVNCsX-t90Uu4Fj8G_-7" vertex="1">
          <mxGeometry y="150" width="180" height="30" as="geometry" />
        </mxCell>
        <mxCell id="23bVNCsX-t90Uu4Fj8G_-21" value="" style="shape=partialRectangle;connectable=0;fillColor=none;top=0;left=0;bottom=0;right=0;editable=1;overflow=hidden;whiteSpace=wrap;html=1;" parent="23bVNCsX-t90Uu4Fj8G_-20" vertex="1">
          <mxGeometry width="30" height="30" as="geometry">
            <mxRectangle width="30" height="30" as="alternateBounds" />
          </mxGeometry>
        </mxCell>
        <mxCell id="23bVNCsX-t90Uu4Fj8G_-22" value="new_email" style="shape=partialRectangle;connectable=0;fillColor=none;top=0;left=0;bottom=0;right=0;align=left;spacingLeft=6;overflow=hidden;whiteSpace=wrap;html=1;" parent="23bVNCsX-t90Uu4Fj8G_-20" vertex="1">
          <mxGeometry x="30" width="150" height="30" as="geometry">
            <mxRectangle width="150" height="30" as="alternateBounds" />
          </mxGeometry>
        </mxCell>
        <mxCell id="23bVNCsX-t90Uu4Fj8G_-23" value="" style="shape=tableRow;horizontal=0;startSize=0;swimlaneHead=0;swimlaneBody=0;fillColor=none;collapsible=0;dropTarget=0;points=[[0,0.5],[1,0.5]];portConstraint=eastwest;top=0;left=0;right=0;bottom=0;" parent="23bVNCsX-t90Uu4Fj8G_-7" vertex="1">
          <mxGeometry y="180" width="180" height="30" as="geometry" />
        </mxCell>
        <mxCell id="23bVNCsX-t90Uu4Fj8G_-24" value="" style="shape=partialRectangle;connectable=0;fillColor=none;top=0;left=0;bottom=0;right=0;editable=1;overflow=hidden;whiteSpace=wrap;html=1;" parent="23bVNCsX-t90Uu4Fj8G_-23" vertex="1">
          <mxGeometry width="30" height="30" as="geometry">
            <mxRectangle width="30" height="30" as="alternateBounds" />
          </mxGeometry>
        </mxCell>
        <mxCell id="23bVNCsX-t90Uu4Fj8G_-25" value="new_email_code" style="shape=partialRectangle;connectable=0;fillColor=none;top=0;left=0;bottom=0;right=0;align=left;spacingLeft=6;overflow=hidden;whiteSpace=wrap;html=1;" parent="23bVNCsX-t90Uu4Fj8G_-23" vertex="1">
          <mxGeometry x="30" width="150" height="30" as="geometry">
            <mxRectangle width="150" height="30" as="alternateBounds" />
          </mxGeometry>
        </mxCell>
        <mxCell id="23bVNCsX-t90Uu4Fj8G_-26" value="" style="shape=tableRow;horizontal=0;startSize=0;swimlaneHead=0;swimlaneBody=0;fillColor=none;collapsible=0;dropTarget=0;points=[[0,0.5],[1,0.5]];portConstraint=eastwest;top=0;left=0;right=0;bottom=0;" parent="23bVNCsX-t90Uu4Fj8G_-7" vertex="1">
          <mxGeometry y="210" width="180" height="30" as="geometry" />
        </mxCell>
        <mxCell id="23bVNCsX-t90Uu4Fj8G_-27" value="" style="shape=partialRectangle;connectable=0;fillColor=none;top=0;left=0;bottom=0;right=0;editable=1;overflow=hidden;whiteSpace=wrap;html=1;" parent="23bVNCsX-t90Uu4Fj8G_-26" vertex="1">
          <mxGeometry width="30" height="30" as="geometry">
            <mxRectangle width="30" height="30" as="alternateBounds" />
          </mxGeometry>
        </mxCell>
        <mxCell id="23bVNCsX-t90Uu4Fj8G_-28" value="new_phone_code_date" style="shape=partialRectangle;connectable=0;fillColor=none;top=0;left=0;bottom=0;right=0;align=left;spacingLeft=6;overflow=hidden;whiteSpace=wrap;html=1;" parent="23bVNCsX-t90Uu4Fj8G_-26" vertex="1">
          <mxGeometry x="30" width="150" height="30" as="geometry">
            <mxRectangle width="150" height="30" as="alternateBounds" />
          </mxGeometry>
        </mxCell>
        <mxCell id="23bVNCsX-t90Uu4Fj8G_-29" style="edgeStyle=orthogonalEdgeStyle;rounded=0;orthogonalLoop=1;jettySize=auto;html=1;exitX=1;exitY=0.5;exitDx=0;exitDy=0;entryX=0;entryY=0.5;entryDx=0;entryDy=0;" parent="1" source="23bVNCsX-t90Uu4Fj8G_-4" target="23bVNCsX-t90Uu4Fj8G_-8" edge="1">
          <mxGeometry relative="1" as="geometry" />
        </mxCell>
        <mxCell id="23bVNCsX-t90Uu4Fj8G_-30" value="OTPSchema" style="shape=table;startSize=30;container=1;collapsible=1;childLayout=tableLayout;fixedRows=1;rowLines=0;fontStyle=1;align=center;resizeLast=1;html=1;" parent="1" vertex="1">
          <mxGeometry x="200" y="545" width="180" height="150" as="geometry" />
        </mxCell>
        <mxCell id="23bVNCsX-t90Uu4Fj8G_-31" value="" style="shape=tableRow;horizontal=0;startSize=0;swimlaneHead=0;swimlaneBody=0;fillColor=none;collapsible=0;dropTarget=0;points=[[0,0.5],[1,0.5]];portConstraint=eastwest;top=0;left=0;right=0;bottom=1;" parent="23bVNCsX-t90Uu4Fj8G_-30" vertex="1">
          <mxGeometry y="30" width="180" height="30" as="geometry" />
        </mxCell>
        <mxCell id="23bVNCsX-t90Uu4Fj8G_-32" value="PK" style="shape=partialRectangle;connectable=0;fillColor=none;top=0;left=0;bottom=0;right=0;fontStyle=1;overflow=hidden;whiteSpace=wrap;html=1;" parent="23bVNCsX-t90Uu4Fj8G_-31" vertex="1">
          <mxGeometry width="30" height="30" as="geometry">
            <mxRectangle width="30" height="30" as="alternateBounds" />
          </mxGeometry>
        </mxCell>
        <mxCell id="23bVNCsX-t90Uu4Fj8G_-33" value="UniqueID" style="shape=partialRectangle;connectable=0;fillColor=none;top=0;left=0;bottom=0;right=0;align=left;spacingLeft=6;fontStyle=5;overflow=hidden;whiteSpace=wrap;html=1;" parent="23bVNCsX-t90Uu4Fj8G_-31" vertex="1">
          <mxGeometry x="30" width="150" height="30" as="geometry">
            <mxRectangle width="150" height="30" as="alternateBounds" />
          </mxGeometry>
        </mxCell>
        <mxCell id="23bVNCsX-t90Uu4Fj8G_-34" value="" style="shape=tableRow;horizontal=0;startSize=0;swimlaneHead=0;swimlaneBody=0;fillColor=none;collapsible=0;dropTarget=0;points=[[0,0.5],[1,0.5]];portConstraint=eastwest;top=0;left=0;right=0;bottom=0;" parent="23bVNCsX-t90Uu4Fj8G_-30" vertex="1">
          <mxGeometry y="60" width="180" height="30" as="geometry" />
        </mxCell>
        <mxCell id="23bVNCsX-t90Uu4Fj8G_-35" value="" style="shape=partialRectangle;connectable=0;fillColor=none;top=0;left=0;bottom=0;right=0;editable=1;overflow=hidden;whiteSpace=wrap;html=1;" parent="23bVNCsX-t90Uu4Fj8G_-34" vertex="1">
          <mxGeometry width="30" height="30" as="geometry">
            <mxRectangle width="30" height="30" as="alternateBounds" />
          </mxGeometry>
        </mxCell>
        <mxCell id="23bVNCsX-t90Uu4Fj8G_-36" value="identity String" style="shape=partialRectangle;connectable=0;fillColor=none;top=0;left=0;bottom=0;right=0;align=left;spacingLeft=6;overflow=hidden;whiteSpace=wrap;html=1;" parent="23bVNCsX-t90Uu4Fj8G_-34" vertex="1">
          <mxGeometry x="30" width="150" height="30" as="geometry">
            <mxRectangle width="150" height="30" as="alternateBounds" />
          </mxGeometry>
        </mxCell>
        <mxCell id="23bVNCsX-t90Uu4Fj8G_-37" value="" style="shape=tableRow;horizontal=0;startSize=0;swimlaneHead=0;swimlaneBody=0;fillColor=none;collapsible=0;dropTarget=0;points=[[0,0.5],[1,0.5]];portConstraint=eastwest;top=0;left=0;right=0;bottom=0;" parent="23bVNCsX-t90Uu4Fj8G_-30" vertex="1">
          <mxGeometry y="90" width="180" height="30" as="geometry" />
        </mxCell>
        <mxCell id="23bVNCsX-t90Uu4Fj8G_-38" value="" style="shape=partialRectangle;connectable=0;fillColor=none;top=0;left=0;bottom=0;right=0;editable=1;overflow=hidden;whiteSpace=wrap;html=1;" parent="23bVNCsX-t90Uu4Fj8G_-37" vertex="1">
          <mxGeometry width="30" height="30" as="geometry">
            <mxRectangle width="30" height="30" as="alternateBounds" />
          </mxGeometry>
        </mxCell>
        <mxCell id="23bVNCsX-t90Uu4Fj8G_-39" value="code String" style="shape=partialRectangle;connectable=0;fillColor=none;top=0;left=0;bottom=0;right=0;align=left;spacingLeft=6;overflow=hidden;whiteSpace=wrap;html=1;" parent="23bVNCsX-t90Uu4Fj8G_-37" vertex="1">
          <mxGeometry x="30" width="150" height="30" as="geometry">
            <mxRectangle width="150" height="30" as="alternateBounds" />
          </mxGeometry>
        </mxCell>
        <mxCell id="23bVNCsX-t90Uu4Fj8G_-40" value="" style="shape=tableRow;horizontal=0;startSize=0;swimlaneHead=0;swimlaneBody=0;fillColor=none;collapsible=0;dropTarget=0;points=[[0,0.5],[1,0.5]];portConstraint=eastwest;top=0;left=0;right=0;bottom=0;" parent="23bVNCsX-t90Uu4Fj8G_-30" vertex="1">
          <mxGeometry y="120" width="180" height="30" as="geometry" />
        </mxCell>
        <mxCell id="23bVNCsX-t90Uu4Fj8G_-41" value="" style="shape=partialRectangle;connectable=0;fillColor=none;top=0;left=0;bottom=0;right=0;editable=1;overflow=hidden;whiteSpace=wrap;html=1;" parent="23bVNCsX-t90Uu4Fj8G_-40" vertex="1">
          <mxGeometry width="30" height="30" as="geometry">
            <mxRectangle width="30" height="30" as="alternateBounds" />
          </mxGeometry>
        </mxCell>
        <mxCell id="23bVNCsX-t90Uu4Fj8G_-42" value="expired_at Date" style="shape=partialRectangle;connectable=0;fillColor=none;top=0;left=0;bottom=0;right=0;align=left;spacingLeft=6;overflow=hidden;whiteSpace=wrap;html=1;" parent="23bVNCsX-t90Uu4Fj8G_-40" vertex="1">
          <mxGeometry x="30" width="150" height="30" as="geometry">
            <mxRectangle width="150" height="30" as="alternateBounds" />
          </mxGeometry>
        </mxCell>
        <mxCell id="23bVNCsX-t90Uu4Fj8G_-55" style="edgeStyle=orthogonalEdgeStyle;rounded=0;orthogonalLoop=1;jettySize=auto;html=1;exitX=1;exitY=0.5;exitDx=0;exitDy=0;entryX=0;entryY=0.5;entryDx=0;entryDy=0;" parent="1" source="23bVNCsX-t90Uu4Fj8G_-52" target="23bVNCsX-t90Uu4Fj8G_-31" edge="1">
          <mxGeometry relative="1" as="geometry" />
        </mxCell>
        <mxCell id="RHODHqZHqJ4hgx8U8l-g-26" value="FilesSchema" style="shape=table;startSize=30;container=1;collapsible=1;childLayout=tableLayout;fixedRows=1;rowLines=0;fontStyle=1;align=center;resizeLast=1;html=1;" vertex="1" parent="1">
          <mxGeometry x="1250" y="840" width="250" height="150" as="geometry" />
        </mxCell>
        <mxCell id="RHODHqZHqJ4hgx8U8l-g-27" value="" style="shape=tableRow;horizontal=0;startSize=0;swimlaneHead=0;swimlaneBody=0;fillColor=none;collapsible=0;dropTarget=0;points=[[0,0.5],[1,0.5]];portConstraint=eastwest;top=0;left=0;right=0;bottom=1;" vertex="1" parent="RHODHqZHqJ4hgx8U8l-g-26">
          <mxGeometry y="30" width="250" height="30" as="geometry" />
        </mxCell>
        <mxCell id="RHODHqZHqJ4hgx8U8l-g-28" value="PK" style="shape=partialRectangle;connectable=0;fillColor=none;top=0;left=0;bottom=0;right=0;fontStyle=1;overflow=hidden;whiteSpace=wrap;html=1;" vertex="1" parent="RHODHqZHqJ4hgx8U8l-g-27">
          <mxGeometry width="30" height="30" as="geometry">
            <mxRectangle width="30" height="30" as="alternateBounds" />
          </mxGeometry>
        </mxCell>
        <mxCell id="RHODHqZHqJ4hgx8U8l-g-29" value="UniqueID" style="shape=partialRectangle;connectable=0;fillColor=none;top=0;left=0;bottom=0;right=0;align=left;spacingLeft=6;fontStyle=5;overflow=hidden;whiteSpace=wrap;html=1;" vertex="1" parent="RHODHqZHqJ4hgx8U8l-g-27">
          <mxGeometry x="30" width="220" height="30" as="geometry">
            <mxRectangle width="220" height="30" as="alternateBounds" />
          </mxGeometry>
        </mxCell>
        <mxCell id="RHODHqZHqJ4hgx8U8l-g-30" value="" style="shape=tableRow;horizontal=0;startSize=0;swimlaneHead=0;swimlaneBody=0;fillColor=none;collapsible=0;dropTarget=0;points=[[0,0.5],[1,0.5]];portConstraint=eastwest;top=0;left=0;right=0;bottom=0;" vertex="1" parent="RHODHqZHqJ4hgx8U8l-g-26">
          <mxGeometry y="60" width="250" height="30" as="geometry" />
        </mxCell>
        <mxCell id="RHODHqZHqJ4hgx8U8l-g-31" value="" style="shape=partialRectangle;connectable=0;fillColor=none;top=0;left=0;bottom=0;right=0;editable=1;overflow=hidden;whiteSpace=wrap;html=1;" vertex="1" parent="RHODHqZHqJ4hgx8U8l-g-30">
          <mxGeometry width="30" height="30" as="geometry">
            <mxRectangle width="30" height="30" as="alternateBounds" />
          </mxGeometry>
        </mxCell>
        <mxCell id="RHODHqZHqJ4hgx8U8l-g-32" value="user_id ObjectID" style="shape=partialRectangle;connectable=0;fillColor=none;top=0;left=0;bottom=0;right=0;align=left;spacingLeft=6;overflow=hidden;whiteSpace=wrap;html=1;" vertex="1" parent="RHODHqZHqJ4hgx8U8l-g-30">
          <mxGeometry x="30" width="220" height="30" as="geometry">
            <mxRectangle width="220" height="30" as="alternateBounds" />
          </mxGeometry>
        </mxCell>
        <mxCell id="RHODHqZHqJ4hgx8U8l-g-33" value="" style="shape=tableRow;horizontal=0;startSize=0;swimlaneHead=0;swimlaneBody=0;fillColor=none;collapsible=0;dropTarget=0;points=[[0,0.5],[1,0.5]];portConstraint=eastwest;top=0;left=0;right=0;bottom=0;" vertex="1" parent="RHODHqZHqJ4hgx8U8l-g-26">
          <mxGeometry y="90" width="250" height="30" as="geometry" />
        </mxCell>
        <mxCell id="RHODHqZHqJ4hgx8U8l-g-34" value="" style="shape=partialRectangle;connectable=0;fillColor=none;top=0;left=0;bottom=0;right=0;editable=1;overflow=hidden;whiteSpace=wrap;html=1;" vertex="1" parent="RHODHqZHqJ4hgx8U8l-g-33">
          <mxGeometry width="30" height="30" as="geometry">
            <mxRectangle width="30" height="30" as="alternateBounds" />
          </mxGeometry>
        </mxCell>
        <mxCell id="RHODHqZHqJ4hgx8U8l-g-35" value="link String" style="shape=partialRectangle;connectable=0;fillColor=none;top=0;left=0;bottom=0;right=0;align=left;spacingLeft=6;overflow=hidden;whiteSpace=wrap;html=1;" vertex="1" parent="RHODHqZHqJ4hgx8U8l-g-33">
          <mxGeometry x="30" width="220" height="30" as="geometry">
            <mxRectangle width="220" height="30" as="alternateBounds" />
          </mxGeometry>
        </mxCell>
        <mxCell id="RHODHqZHqJ4hgx8U8l-g-39" value="" style="shape=tableRow;horizontal=0;startSize=0;swimlaneHead=0;swimlaneBody=0;fillColor=none;collapsible=0;dropTarget=0;points=[[0,0.5],[1,0.5]];portConstraint=eastwest;top=0;left=0;right=0;bottom=0;" vertex="1" parent="RHODHqZHqJ4hgx8U8l-g-26">
          <mxGeometry y="120" width="250" height="30" as="geometry" />
        </mxCell>
        <mxCell id="RHODHqZHqJ4hgx8U8l-g-40" value="" style="shape=partialRectangle;connectable=0;fillColor=none;top=0;left=0;bottom=0;right=0;editable=1;overflow=hidden;whiteSpace=wrap;html=1;" vertex="1" parent="RHODHqZHqJ4hgx8U8l-g-39">
          <mxGeometry width="30" height="30" as="geometry">
            <mxRectangle width="30" height="30" as="alternateBounds" />
          </mxGeometry>
        </mxCell>
        <mxCell id="RHODHqZHqJ4hgx8U8l-g-41" value="created_at Date" style="shape=partialRectangle;connectable=0;fillColor=none;top=0;left=0;bottom=0;right=0;align=left;spacingLeft=6;overflow=hidden;whiteSpace=wrap;html=1;" vertex="1" parent="RHODHqZHqJ4hgx8U8l-g-39">
          <mxGeometry x="30" width="220" height="30" as="geometry">
            <mxRectangle width="220" height="30" as="alternateBounds" />
          </mxGeometry>
        </mxCell>
        <mxCell id="RHODHqZHqJ4hgx8U8l-g-43" value="&lt;font style=&quot;font-size: 32px;&quot;&gt;Users Domain&lt;/font&gt;" style="text;html=1;align=center;verticalAlign=middle;resizable=0;points=[];autosize=1;strokeColor=none;fillColor=none;" vertex="1" parent="1">
          <mxGeometry x="-350" y="40" width="230" height="50" as="geometry" />
        </mxCell>
        <mxCell id="RHODHqZHqJ4hgx8U8l-g-45" value="&lt;font style=&quot;font-size: 32px;&quot;&gt;Chats Domain&lt;/font&gt;" style="text;html=1;align=center;verticalAlign=middle;resizable=0;points=[];autosize=1;strokeColor=none;fillColor=none;" vertex="1" parent="1">
          <mxGeometry x="960" y="60" width="230" height="50" as="geometry" />
        </mxCell>
        <mxCell id="RHODHqZHqJ4hgx8U8l-g-47" value="&lt;font style=&quot;font-size: 32px;&quot;&gt;Files Domain&lt;/font&gt;" style="text;html=1;align=center;verticalAlign=middle;resizable=0;points=[];autosize=1;strokeColor=none;fillColor=none;" vertex="1" parent="1">
          <mxGeometry x="1010" y="770" width="210" height="50" as="geometry" />
        </mxCell>
      </root>
    </mxGraphModel>
  </diagram>
</mxfile>
